<svg xmlns="http://www.w3.org/2000/svg" id="svg0.7678575553160736" viewBox="0 0 1024 1024"><path d="M0 0 C337.92 0 675.84 0 1024 0 C1024 337.92 1024 675.84 1024 1024 C686.08 1024 348.16 1024 0 1024 C0 686.08 0 348.16 0 0 Z " transform="translate(0,0)" style="fill: #FCFCFC;"/><path d="M0 0 C2.08746754 0.00687252 4.17490892 0.00910986 6.26238632 0.01107025 C27.99946401 0.05197456 49.08332452 1.20164589 70.42123032 5.50673676 C71.62730942 5.73667328 72.83338852 5.9666098 74.07601547 6.2035141 C116.71988333 14.41386773 159.09643058 30.26777877 196.42123032 52.50673676 C197.25460922 53.00286469 198.08798813 53.49899261 198.94662094 54.01015472 C234.14569682 75.11011737 267.6784686 101.19301184 294.42123032 132.50673676 C295.30192492 133.51265992 296.18350762 134.51780594 297.06576157 135.52236176 C313.58000314 154.41748244 327.88745326 174.7756697 340.42123032 196.50673676 C341.00420883 197.51027191 341.00420883 197.51027191 341.59896469 198.53408051 C370.88837809 249.18920126 387.82109915 305.21702686 392.42123032 363.50673676 C392.49180649 364.36025726 392.56238266 365.21377777 392.6350975 366.09316254 C395.12707576 397.46703693 393.08528632 428.390861 387.94027328 459.37734222 C387.60758708 461.38316149 387.2805691 463.38993404 386.9607811 465.39785004 C380.9589948 503.00683355 368.32641057 540.87352604 350.42123032 574.50673676 C349.9737645 575.35236176 349.52629868 576.19798676 349.06527328 577.06923676 C334.40912872 604.66649727 317.24373986 629.83332051 296.92904282 653.56923676 C295.62085877 655.10156448 294.31653703 656.63811067 293.06087875 658.21376801 C291.88859574 659.6784786 290.65900325 661.09693437 289.42123032 662.50673676 C288.76123032 662.50673676 288.10123032 662.50673676 287.42123032 662.50673676 C287.17066879 663.08254486 286.92010727 663.65835297 286.66195297 664.2516098 C285.25266333 666.81312268 283.64214268 668.52858625 281.56966782 670.58876801 C280.8000975 671.35640472 280.03052719 672.12404144 279.23763657 672.91493988 C278.4319725 673.70835785 277.62630844 674.50177582 276.79623032 675.31923676 C276.01376938 676.10105316 275.23130844 676.88286957 274.42513657 677.68837738 C269.58322106 682.49415918 264.61054469 687.07994796 259.42123032 691.50673676 C258.88240219 691.97265228 258.34357407 692.43856781 257.78841782 692.91860199 C249.88831504 699.74450186 241.81478321 706.29601311 233.42123032 712.50673676 C232.79265121 712.97192719 232.16407211 713.43711761 231.51644516 713.91640472 C220.24990107 722.19143944 208.54664499 729.5589215 196.42123032 736.50673676 C195.54837387 737.00705414 194.67551743 737.50737152 193.77621078 738.02285004 C166.45276795 753.55990554 137.61671264 765.74237006 107.42123032 774.50673676 C106.12935336 774.9044919 104.83769309 775.30295138 103.54623032 775.70204926 C83.8938964 781.61852949 62.85941225 785.66928557 42.42123032 787.50673676 C41.54418442 787.59407074 40.66713852 787.68140472 39.76351547 787.77138519 C-33.67600618 794.9973378 -108.39511535 782.32694137 -174.57876968 749.50673676 C-176.1838942 748.71347992 -176.1838942 748.71347992 -177.82144547 747.90419769 C-191.92784954 740.87950837 -205.50377958 733.30710588 -218.57876968 724.50673676 C-219.81385269 723.67722504 -219.81385269 723.67722504 -221.07388687 722.83095551 C-232.72501014 714.95388933 -243.84831829 706.59431428 -254.57876968 697.50673676 C-255.06312485 697.10282715 -255.54748001 696.69891754 -256.0465126 696.28276825 C-264.79961429 688.9827728 -273.07323316 681.33027176 -281.10342789 673.24282074 C-282.90092773 671.43452068 -284.70899284 669.63727698 -286.51822281 667.84072113 C-293.32995992 661.03723384 -299.6334374 654.08962284 -305.57876968 646.50673676 C-306.62704947 645.21693925 -307.67756486 643.92895289 -308.73111343 642.64345551 C-319.62456697 629.19658103 -329.36966526 615.15477534 -338.57876968 600.50673676 C-338.98514664 599.86059418 -339.39152359 599.2144516 -339.810215 598.54872894 C-345.67784657 589.15373503 -350.80225199 579.49690333 -355.57876968 569.50673676 C-355.89088394 568.85640472 -356.2029982 568.20607269 -356.52457047 567.53603363 C-360.46460234 559.29722286 -364.18115635 550.98555688 -367.57876968 542.50673676 C-367.8415773 541.85898285 -368.10438492 541.21122894 -368.3751564 540.54384613 C-375.48630402 522.9708333 -380.86671811 505.26750481 -385.05118179 486.7816391 C-385.5261742 484.73352281 -386.04400262 482.69545438 -386.56705093 480.65908051 C-397.07952492 438.83274359 -398.42373388 393.22167568 -393.57876968 350.50673676 C-393.42601578 349.1317099 -393.42601578 349.1317099 -393.27017593 347.72890472 C-389.78373416 317.34628634 -383.02476843 287.28341248 -372.15298843 258.70204926 C-371.17561915 256.12358316 -370.24719605 253.5446469 -369.34830093 250.93642426 C-356.70513487 214.91312648 -335.69781446 180.00013391 -311.57876968 150.50673676 C-310.82595718 149.56443207 -310.07314468 148.62212738 -309.29751968 147.65126801 C-304.95925431 142.26557897 -300.46223368 137.05664412 -295.80142593 131.94814301 C-294.37857179 130.385254 -292.96838243 128.81068112 -291.57486343 127.22158051 C-286.74319709 121.72980036 -281.67701462 116.49961787 -276.51626968 111.31923676 C-275.52518204 110.32126068 -275.52518204 110.32126068 -274.51407242 109.30312347 C-270.03207616 104.83501024 -265.37874935 100.62917576 -260.57876968 96.50673676 C-259.59134781 95.63790863 -258.60392593 94.76908051 -257.58658218 93.87392426 C-249.31398299 86.72227346 -240.62105103 80.2904898 -231.68570328 73.99208832 C-229.80764895 72.66809266 -227.93653722 71.33496932 -226.06705093 69.99892426 C-218.1437956 64.40489159 -209.96585739 59.3638559 -201.57876968 54.50673676 C-200.93004898 54.13016937 -200.28132828 53.75360199 -199.61294937 53.36562347 C-190.4297917 48.05823857 -181.10796489 43.10535769 -171.56460953 38.47743988 C-169.64968418 37.54140064 -167.7487732 36.58108217 -165.84830093 35.61611176 C-114.72900505 10.12161713 -56.69244085 -0.19308619 0 0 Z " transform="translate(513.5787696838379,117.4932632446289)" style="fill: #CFCFCD;"/><path d="M0 0 C1.32 0 2.64 0 4 0 C4.52400391 1.28197266 4.52400391 1.28197266 5.05859375 2.58984375 C5.51363281 3.69457031 5.96867188 4.79929687 6.4375 5.9375 C6.88996094 7.03964844 7.34242188 8.14179688 7.80859375 9.27734375 C8.74424608 11.86568916 8.74424608 11.86568916 10 13 C10.45912584 16.27947026 10.74335889 18.85064028 8.88427734 21.72509766 C5.30568516 25.79290915 1.60945584 29.12802554 -2.8125 32.25 C-3.46138184 32.71543213 -4.11026367 33.18086426 -4.77880859 33.66040039 C-18.13776873 43.14943975 -32.06936109 51.53647778 -46.36669922 59.52685547 C-48.90704091 60.947996 -51.44007528 62.38149483 -53.97265625 63.81640625 C-65.36974565 70.22939875 -76.99336872 76.047296 -88.85839844 81.54345703 C-90.98697689 82.53033138 -93.1125531 83.52370255 -95.23535156 84.52294922 C-183.51464631 126 -183.51464631 126 -216 126 C-216.226875 126.57878906 -216.45375 127.15757812 -216.6875 127.75390625 C-222.45238212 137.61940392 -238.2507008 143.44752448 -248.76171875 146.2734375 C-261.52342881 148.83763346 -280.25532453 149.20530333 -292.02563477 142.91796875 C-296.51204582 141.53334217 -300.69134476 142.10024145 -305.33203125 142.4609375 C-307.48546292 142.60542318 -309.63894881 142.7491023 -311.79248047 142.89208984 C-312.93376404 142.97142761 -314.07504761 143.05076538 -315.25091553 143.13250732 C-495.85629592 155.42913605 -495.85629592 155.42913605 -546 122 C-545.79797267 118.46452171 -545.16131284 117.16318236 -542.640625 114.61328125 C-538.22434795 111.10984046 -533.11135646 109.32891817 -527.875 107.375 C-526.73305176 106.94533936 -525.59110352 106.51567871 -524.41455078 106.07299805 C-480.20257127 89.78142851 -433.65617606 78.31963131 -387.75 67.9375 C-380.985272 66.40513458 -374.24065422 64.82019158 -367.515625 63.12109375 C-357.70977066 60.64808243 -347.85985828 58.37170514 -338 56.125 C-337.03413971 55.90490265 -336.06827942 55.6848053 -335.07315063 55.45803833 C-319.93924736 52.02102383 -304.79351483 48.93499857 -289.51780701 46.19204712 C-283.74694348 45.14992646 -277.99023814 44.03969883 -272.234375 42.91796875 C-235.96163056 35.8574283 -199.58060999 29.27390828 -163 24 C-161.75105957 23.81904785 -160.50211914 23.6380957 -159.21533203 23.45166016 C-108.58421592 16.14533949 -58.24121123 9.10753517 -7 10 C-7 9.34 -7 8.68 -7 8 C-3.7 8.33 -0.4 8.66 3 9 C2.67 8.01 2.34 7.02 2 6 C1.96125079 4.33378384 1.9549714 2.66605828 2 1 C1.34 0.67 0.68 0.34 0 0 Z " transform="translate(791,477)" style="fill: #383838;"/><path d="M0 0 C0.81436523 0.20399414 1.62873047 0.40798828 2.46777344 0.61816406 C33.04772835 8.36177963 68.89872198 25.90504325 86 54 C86 54.66 86 55.32 86 56 C87.06661865 55.83846436 88.1332373 55.67692871 89.23217773 55.51049805 C94.90897932 54.80547479 100.57193287 54.8377348 106.28515625 54.83203125 C107.45904404 54.82870285 108.63293182 54.82537445 109.84239197 54.82194519 C112.32094941 54.81689788 114.7995136 54.81453618 117.27807617 54.81469727 C121.02599624 54.81252119 124.77361668 54.79437029 128.52148438 54.77539062 C140.49531621 54.74816173 152.19959661 54.78828587 164 57 C164.33 56.01 164.66 55.02 165 54 C165.99 54.33 166.98 54.66 168 55 C168 55.99 168 56.98 168 58 C168.66427002 57.98259766 169.32854004 57.96519531 170.01293945 57.94726562 C176.88686431 57.84613423 183.40865608 58.39027607 190.1875 59.5 C191.22962646 59.66725586 192.27175293 59.83451172 193.34545898 60.00683594 C207.75203239 62.46375466 221.88012947 66.27160524 236 70 C236.66 73.96 237.32 77.92 238 82 C234.37 81.01 230.74 80.02 227 79 C227 79.66 227 80.32 227 81 C226.13987305 81.0093457 225.27974609 81.01869141 224.39355469 81.02832031 C185.71351336 81.54594878 147.57215485 85.64574234 109.2718811 90.8788147 C103.0885472 91.72276597 96.90186296 92.53407897 90.7109375 93.3203125 C72.73715587 95.60920871 54.85346539 98.17447316 37.00244141 101.30224609 C33.46017229 101.92229438 29.9151634 102.52527142 26.36946106 103.12533569 C4.33546284 106.85872615 -17.60612627 110.99792953 -39.52416992 115.36010742 C-41.55385114 115.76362261 -43.58355484 116.16702469 -45.61328125 116.5703125 C-46.62129791 116.77089264 -47.62931458 116.97147278 -48.6678772 117.1781311 C-55.07865252 118.44598614 -61.49902026 119.64639724 -67.9291687 120.81175232 C-81.77037003 123.3237434 -95.50572276 126.19592495 -109.22924805 129.28442383 C-112.72390756 130.07069138 -116.22019714 130.84936379 -119.71679688 131.62695312 C-130.23359927 133.9734345 -140.73032347 136.36567934 -151.17211914 139.02709961 C-154.69148649 139.92158771 -158.21583502 140.79013845 -161.7440033 141.6489563 C-200.69224671 151.13186501 -239.76617319 160.94340811 -277.8125 173.625 C-278.87259277 173.97605301 -278.87259277 173.97605301 -279.95410156 174.334198 C-298.65598017 179.86512884 -298.65598017 179.86512884 -313 192 C-314.50790569 176.16699029 -314.50790569 176.16699029 -311.23046875 171.45703125 C-308.58863455 169.59195606 -305.93439363 168.35778342 -303 167 C-302.07437256 166.55076172 -301.14874512 166.10152344 -300.19506836 165.63867188 C-291.24652361 161.37515616 -282.10622922 157.99522033 -272.75 154.75 C-271.9519696 154.47131073 -271.15393921 154.19262146 -270.33172607 153.90548706 C-247.85937422 146.06953863 -225.15152182 139.14452162 -202.07421875 133.31640625 C-196.40531907 131.87351186 -190.80520221 130.21728549 -185.22265625 128.47143555 C-181.93692592 127.46509716 -179.48617759 127 -176 127 C-176.33 126.67 -176.66 126.34 -177 126 C-179.48607235 126.52455934 -181.91349574 127.11456149 -184.3671875 127.765625 C-185.11654572 127.95968933 -185.86590393 128.15375366 -186.63796997 128.35369873 C-189.05177949 128.98031358 -191.46335066 129.61512778 -193.875 130.25 C-195.46340573 130.66328323 -197.05194598 131.07604982 -198.640625 131.48828125 C-212.60168724 134.92807547 -212.60168724 134.92807547 -226.3125 139.1875 C-229.32210549 140.09738073 -231.87317567 140.1488964 -235 140 C-235 140.66 -235 141.32 -235 142 C-235.98500488 142.27328125 -236.97000977 142.5465625 -237.98486328 142.828125 C-242.11522424 144.00907907 -246.17575634 145.36720612 -250.2421875 146.75 C-251.81895084 147.2814268 -253.39577568 147.81267115 -254.97265625 148.34375 C-257.42402934 149.17116807 -259.87490641 149.99996821 -262.32470703 150.83203125 C-264.71248029 151.64219432 -267.1021719 152.44647995 -269.4921875 153.25 C-270.2112326 153.49588867 -270.93027771 153.74177734 -271.67111206 153.99511719 C-276.71785307 155.68569563 -281.78624798 156.93573171 -287 158 C-286.0008343 155.3099385 -284.96219918 152.93951868 -283.4375 150.5 C-281.96737241 147.94325637 -281.41424836 145.89973855 -281 143 C-280.01 143.66 -279.02 144.32 -278 145 C-278 145.66 -278 146.32 -278 147 C-267.09607045 142.26551869 -267.09607045 142.26551869 -256.875 136.25 C-253.47795584 134.054677 -251.10808985 133.48648877 -247 134 C-247 134.66 -247 135.32 -247 136 C-244.92064793 135.5899433 -244.92064793 135.5899433 -243 134 C-242.31209578 131.30341548 -242.18053536 128.7982981 -242 126 C-241.34 126.33 -240.68 126.66 -240 127 C-240 128.65 -240 130.3 -240 132 C-237.03 131.01 -234.06 130.02 -231 129 C-231.66 130.32 -232.32 131.64 -233 133 C-232.34 132.67 -231.68 132.34 -231 132 C-230.773125 131.0925 -230.54625 130.185 -230.3125 129.25 C-228.56545294 124.9239787 -226.00553977 123.21548893 -222 121 C-220.34628287 120.30182962 -218.67642329 119.64173763 -217 119 C-215.62974386 118.4490705 -214.26000047 117.89686485 -212.890625 117.34375 C-211.34391168 116.72875989 -209.79703231 116.11418725 -208.25 115.5 C-207.48945313 115.19191406 -206.72890625 114.88382813 -205.9453125 114.56640625 C-199.25285766 111.92345375 -192.28896722 109.52974405 -185 110 C-185 110.99 -185 111.98 -185 113 C-184.09636719 112.6390625 -183.19273437 112.278125 -182.26171875 111.90625 C-181.08222656 111.4421875 -179.90273438 110.978125 -178.6875 110.5 C-176.92986328 109.80390625 -176.92986328 109.80390625 -175.13671875 109.09375 C-172 108 -172 108 -169 108 C-168.690625 107.360625 -168.38125 106.72125 -168.0625 106.0625 C-167 104 -167 104 -166 103 C-170.02992782 103.55312735 -174.02022924 104.1558062 -178 105 C-178.55334731 98.52671478 -176.6885429 93.92348441 -174.0625 88.0625 C-173.65717041 87.14170654 -173.25184082 86.22091309 -172.83422852 85.2722168 C-167.26023608 72.83974806 -161.05476096 61.26323003 -152 51 C-150.95392578 49.77410156 -150.95392578 49.77410156 -149.88671875 48.5234375 C-140.49194752 37.74364671 -129.90007596 28.84413086 -118 21 C-117.03731201 20.36529785 -117.03731201 20.36529785 -116.05517578 19.71777344 C-83.35516693 -1.46136315 -38.06320978 -10.03923869 0 0 Z " transform="translate(557,406)" style="fill: #A09E9C;"/><path d="M0 0 C0.81436523 0.20399414 1.62873047 0.40798828 2.46777344 0.61816406 C33.04772835 8.36177963 68.89872198 25.90504325 86 54 C86 54.66 86 55.32 86 56 C87.09691162 55.83773926 88.19382324 55.67547852 89.32397461 55.50830078 C94.49131487 54.86584521 99.61539753 54.85627555 104.81640625 54.8671875 C105.83169907 54.86623077 106.84699188 54.86527405 107.89305115 54.86428833 C110.02855492 54.86361103 112.16406079 54.86543374 114.29956055 54.86962891 C117.55587408 54.87498909 120.81205005 54.86966569 124.06835938 54.86328125 C126.15104197 54.863942 128.23372448 54.86522311 130.31640625 54.8671875 C131.28324844 54.86516327 132.25009064 54.86313904 133.24623108 54.86105347 C138.27255587 54.87837617 143.04565601 55.13989753 148 56 C148 56.33 148 56.66 148 57 C146.41773035 57.19627391 144.83410729 57.38165538 143.25 57.5625 C141.92742187 57.71912109 141.92742187 57.71912109 140.578125 57.87890625 C138.11567549 57.99456676 136.33461936 57.73638695 134 57 C134.33 57.99 134.66 58.98 135 60 C131.0186217 61.3271261 127.14954773 61.06915913 123 61 C122.67 60.01 122.34 59.02 122 58 C121.01257813 58.01160156 120.02515625 58.02320313 119.0078125 58.03515625 C117.72648437 58.04417969 116.44515625 58.05320312 115.125 58.0625 C113.84882812 58.07410156 112.57265625 58.08570313 111.2578125 58.09765625 C108 58 108 58 106 57 C104.40494029 56.97178183 102.80843529 57.01192581 101.21484375 57.0859375 C99.72428467 57.15071289 99.72428467 57.15071289 98.20361328 57.21679688 C97.1257959 57.26900391 96.04797852 57.32121094 94.9375 57.375 C92.66277188 57.47681896 90.38803192 57.57837373 88.11328125 57.6796875 C86.35298584 57.76041504 86.35298584 57.76041504 84.55712891 57.84277344 C81.0944696 57.9958244 77.63167057 58.13073172 74.16796875 58.2578125 C73.0704126 58.2985791 71.97285645 58.3393457 70.84204102 58.38134766 C68.75795484 58.45821385 66.67380989 58.53350931 64.58959961 58.60693359 C53.12831992 58.76127092 53.12831992 58.76127092 42 61 C40.29072394 61.22747715 38.57618651 61.41637182 36.85986328 61.58251953 C35.80693085 61.68934052 34.75399841 61.7961615 33.66915894 61.90621948 C32.52278961 62.02224518 31.37642029 62.13827087 30.1953125 62.2578125 C16.27172714 63.73939344 2.50227507 65.87489249 -11.29833984 68.22412109 C-15.12847002 68.87559022 -18.96049532 69.51481949 -22.79296875 70.15234375 C-47.63427212 74.31361723 -72.23338264 79.38823622 -96.8125 84.875 C-97.99144836 85.1376767 -99.17039673 85.40035339 -100.3850708 85.67098999 C-123.34650021 90.79324471 -146.1810072 96.09326663 -168.72216797 102.8684082 C-170.11653076 103.2873938 -170.11653076 103.2873938 -171.5390625 103.71484375 C-172.35584473 103.96355225 -173.17262695 104.21226074 -174.01416016 104.46850586 C-176 105 -176 105 -178 105 C-178.55334731 98.52671478 -176.6885429 93.92348441 -174.0625 88.0625 C-173.65717041 87.14170654 -173.25184082 86.22091309 -172.83422852 85.2722168 C-167.26023608 72.83974806 -161.05476096 61.26323003 -152 51 C-151.30261719 50.18273437 -150.60523438 49.36546875 -149.88671875 48.5234375 C-140.49194752 37.74364671 -129.90007596 28.84413086 -118 21 C-117.35820801 20.57686523 -116.71641602 20.15373047 -116.05517578 19.71777344 C-83.35516693 -1.46136315 -38.06320978 -10.03923869 0 0 Z " transform="translate(557,406)" style="fill: #767C7D;"/><path d="M0 0 C7.10235633 0.50376067 13.74841466 1.74402521 20.625 3.5625 C21.98818359 3.91344727 21.98818359 3.91344727 23.37890625 4.27148438 C25.58763752 4.84110455 27.79407525 5.41960621 30 6 C30.66 9.96 31.32 13.92 32 18 C28.37 17.01 24.74 16.02 21 15 C21 15.66 21 16.32 21 17 C20.13987305 17.0093457 19.27974609 17.01869141 18.39355469 17.02832031 C-20.28648664 17.54594878 -58.42784515 21.64574234 -96.7281189 26.8788147 C-102.9114528 27.72276597 -109.09813704 28.53407897 -115.2890625 29.3203125 C-133.26284413 31.60920871 -151.14653461 34.17447316 -168.99755859 37.30224609 C-172.53982771 37.92229438 -176.0848366 38.52527142 -179.63053894 39.12533569 C-201.66453716 42.85872615 -223.60612627 46.99792953 -245.52416992 51.36010742 C-247.55385114 51.76362261 -249.58355484 52.16702469 -251.61328125 52.5703125 C-252.62129791 52.77089264 -253.62931458 52.97147278 -254.6678772 53.1781311 C-261.07865252 54.44598614 -267.49902026 55.64639724 -273.9291687 56.81175232 C-287.77037003 59.3237434 -301.50572276 62.19592495 -315.22924805 65.28442383 C-318.72390756 66.07069138 -322.22019714 66.84936379 -325.71679688 67.62695312 C-336.23359927 69.9734345 -346.73032347 72.36567934 -357.17211914 75.02709961 C-360.69148649 75.92158771 -364.21583502 76.79013845 -367.7440033 77.6489563 C-406.69224671 87.13186501 -445.76617319 96.94340811 -483.8125 109.625 C-484.87259277 109.97605301 -484.87259277 109.97605301 -485.95410156 110.334198 C-504.65598017 115.86512884 -504.65598017 115.86512884 -519 128 C-520.50790569 112.16699029 -520.50790569 112.16699029 -517.23046875 107.45703125 C-514.58863455 105.59195606 -511.93439363 104.35778342 -509 103 C-508.07437256 102.55076172 -507.14874512 102.10152344 -506.19506836 101.63867188 C-497.24652361 97.37515616 -488.10622922 93.99522033 -478.75 90.75 C-477.9519696 90.47131073 -477.15393921 90.19262146 -476.33172607 89.90548706 C-452.98922923 81.76612529 -429.3855288 74.62872937 -405.40527344 68.61279297 C-403.09961375 68.02537865 -400.80291248 67.41244261 -398.5078125 66.78515625 C-397.82283691 66.59808105 -397.13786133 66.41100586 -396.43212891 66.21826172 C-394.67288449 65.7349919 -392.91451803 65.24852894 -391.15625 64.76171875 C-387.78543222 63.94821694 -384.43286073 63.47519313 -381 63 C-378.99568551 62.34641919 -376.9959722 61.67863055 -375 61 C-371.25554722 60.08342617 -367.48123913 59.29977459 -363.703125 58.53515625 C-359.98294391 57.7590495 -356.52291086 56.87456859 -353 55.4375 C-349.39229128 53.99729692 -346.04053779 53.54175091 -342.17578125 53.30859375 C-339.95013757 53.08671587 -339.95013757 53.08671587 -337.83398438 52.09130859 C-334.44661707 50.78690371 -331.01745865 49.99828377 -327.48046875 49.23046875 C-326.75369934 49.06926544 -326.02692993 48.90806213 -325.27813721 48.74197388 C-322.91555318 48.21933633 -320.55162511 47.70311801 -318.1875 47.1875 C-316.54496753 46.82657857 -314.90247102 46.46549343 -313.26000977 46.10424805 C-308.50840367 45.06147457 -303.75467097 44.02869876 -299 43 C-297.81083984 42.74250977 -296.62167969 42.48501953 -295.39648438 42.21972656 C-280.88218798 39.09543237 -266.31068669 36.3271937 -251.703125 33.67675781 C-248.46746558 33.08543081 -245.23383891 32.48467388 -242.00090027 31.8787384 C-227.358827 29.13573854 -212.73098243 26.55971773 -197.96923828 24.53222656 C-189.08043028 23.31105272 -180.21849421 21.95717655 -171.35519409 20.56607056 C-95.07692312 8.62216599 -95.07692312 8.62216599 -60.73046875 6.453125 C-60.03179184 6.4087178 -59.33311493 6.36431061 -58.61326599 6.31855774 C-55.2136478 6.10543851 -51.81471457 5.90860365 -48.4128418 5.7331543 C-46.61133667 5.63127808 -46.61133667 5.63127808 -44.7734375 5.52734375 C-43.70528809 5.47312256 -42.63713867 5.41890137 -41.53662109 5.36303711 C-38.83534017 5.23520362 -38.83534017 5.23520362 -37 3 C-34.01904297 2.77294922 -34.01904297 2.77294922 -30.2421875 2.8046875 C-29.24761032 2.80893234 -29.24761032 2.80893234 -28.23294067 2.81326294 C-26.11344417 2.82446565 -23.99436896 2.84956949 -21.875 2.875 C-20.43880818 2.88502972 -19.00260975 2.89415559 -17.56640625 2.90234375 C-14.04413372 2.924405 -10.52210797 2.95893506 -7 3 C-7 2.67 -7 2.34 -7 2 C-4.69 1.67 -2.38 1.34 0 1 C0 0.67 0 0.34 0 0 Z " transform="translate(763,470)" style="fill: #898987;"/><path d="M0 0 C12.13728631 -0.33269719 23.19000953 -0.10199117 35 3 C35.67095703 3.17160645 36.34191406 3.34321289 37.03320312 3.52001953 C66.28271479 11.10347726 100.74838531 29.30091872 117 56 C117 56.66 117 57.32 117 58 C118.09691162 57.83773926 119.19382324 57.67547852 120.32397461 57.50830078 C125.49131487 56.86584521 130.61539753 56.85627555 135.81640625 56.8671875 C136.83169907 56.86623077 137.84699188 56.86527405 138.89305115 56.86428833 C141.02855492 56.86361103 143.16406079 56.86543374 145.29956055 56.86962891 C148.55587408 56.87498909 151.81205005 56.86966569 155.06835938 56.86328125 C157.15104197 56.863942 159.23372448 56.86522311 161.31640625 56.8671875 C162.28324844 56.86516327 163.25009064 56.86313904 164.24623108 56.86105347 C169.27255587 56.87837617 174.04565601 57.13989753 179 58 C179 58.33 179 58.66 179 59 C177.41773035 59.19627391 175.83410729 59.38165538 174.25 59.5625 C172.92742187 59.71912109 172.92742187 59.71912109 171.578125 59.87890625 C169.11567549 59.99456676 167.33461936 59.73638695 165 59 C165.33 59.99 165.66 60.98 166 62 C162.0186217 63.3271261 158.14954773 63.06915913 154 63 C153.67 62.01 153.34 61.02 153 60 C152.01257813 60.01160156 151.02515625 60.02320313 150.0078125 60.03515625 C148.72648437 60.04417969 147.44515625 60.05320312 146.125 60.0625 C144.84882812 60.07410156 143.57265625 60.08570313 142.2578125 60.09765625 C139 60 139 60 137 59 C135.40494029 58.97178183 133.80843529 59.01192581 132.21484375 59.0859375 C130.72428467 59.15071289 130.72428467 59.15071289 129.20361328 59.21679688 C128.1257959 59.26900391 127.04797852 59.32121094 125.9375 59.375 C123.66277188 59.47681896 121.38803192 59.57837373 119.11328125 59.6796875 C117.35298584 59.76041504 117.35298584 59.76041504 115.55712891 59.84277344 C112.0944696 59.9958244 108.63167057 60.13073172 105.16796875 60.2578125 C104.0704126 60.2985791 102.97285645 60.3393457 101.84204102 60.38134766 C99.75795484 60.45821385 97.67380989 60.53350931 95.58959961 60.60693359 C84.12831992 60.76127092 84.12831992 60.76127092 73 63 C71.29072394 63.22747715 69.57618651 63.41637182 67.85986328 63.58251953 C66.80693085 63.68934052 65.75399841 63.7961615 64.66915894 63.90621948 C63.52278961 64.02224518 62.37642029 64.13827087 61.1953125 64.2578125 C47.27172714 65.73939344 33.50227507 67.87489249 19.70166016 70.22412109 C15.87152998 70.87559022 12.03950468 71.51481949 8.20703125 72.15234375 C-16.63427212 76.31361723 -41.23338264 81.38823622 -65.8125 86.875 C-66.99144836 87.1376767 -68.17039673 87.40035339 -69.3850708 87.67098999 C-92.34650021 92.79324471 -115.1810072 98.09326663 -137.72216797 104.8684082 C-139.11653076 105.2873938 -139.11653076 105.2873938 -140.5390625 105.71484375 C-141.35584473 105.96355225 -142.17262695 106.21226074 -143.01416016 106.46850586 C-145 107 -145 107 -147 107 C-147 104.69 -147 102.38 -147 100 C-138.929649 96.10893791 -130.5660253 93.53830382 -122 91 C-120.88657227 90.66806641 -119.77314453 90.33613281 -118.62597656 89.99414062 C-102.47337633 85.19213108 -86.29584444 80.59714644 -69.8984375 76.69287109 C-67.01212483 76.00289844 -64.13118342 75.29308006 -61.25 74.58203125 C-28.68495689 66.67364483 4.46164499 61.40670103 37.60498047 56.61376953 C38.69184143 56.45332153 39.77870239 56.29287354 40.89849854 56.12756348 C42.95008242 55.82477992 45.00275968 55.52929031 47.05657959 55.24206543 C47.96039368 55.10755981 48.86420776 54.9730542 49.79541016 54.83447266 C50.58726715 54.72092438 51.37912415 54.6073761 52.19497681 54.49038696 C52.79063446 54.32855927 53.38629211 54.16673157 54 54 C54.33 53.34 54.66 52.68 55 52 C57.32716 51.62599214 59.66117862 51.29235267 62 51 C62.33 50.67 62.66 50.34 63 50 C70.54814092 48.72359204 78.26525319 48.91933394 85.89233398 49.03686523 C89.20083308 49.07432802 91.83630389 49.05456537 95 48 C96.39439664 47.93334624 97.79169875 47.91461801 99.1875 47.9375 C100.445625 47.958125 101.70375 47.97875 103 48 C103.33 48.99 103.66 49.98 104 51 C104.66 51 105.32 51 106 51 C105.29920746 47.54588501 105.29920746 47.54588501 104 44 C102.1670889 42.92681681 102.1670889 42.92681681 100 42 C98.47461274 40.90967037 96.97539827 39.78207604 95.5 38.625 C94.7471875 38.03976562 93.994375 37.45453125 93.21875 36.8515625 C91 35 91 35 89.06640625 32.97265625 C86.69962499 30.71325259 84.32565428 29.34106056 81.4375 27.8125 C80.48746094 27.30332031 79.53742188 26.79414063 78.55859375 26.26953125 C75.97948821 24.91627755 75.97948821 24.91627755 73 24 C72.01 22.7315625 72.01 22.7315625 71 21.4375 C70.01 20.2309375 70.01 20.2309375 69 19 C68.01 19 67.02 19 66 19 C64.9958478 18.00416951 63.99631227 17.00367418 63 16 C60.90862552 15.07444418 60.90862552 15.07444418 58.625 14.4375 C57.8309375 14.19 57.036875 13.9425 56.21875 13.6875 C55.4865625 13.460625 54.754375 13.23375 54 13 C50.9195869 11.86158646 48.75356573 10.83571048 46 9 C44.03289833 8.60159966 42.05057889 8.27523466 40.0625 8 C36.22474946 7.46737539 33.43189125 6.72643002 30 5 C27.68307259 4.65715794 27.68307259 4.65715794 25.25 4.5625 C20.34929559 4.16986196 16.51141795 2.92152987 12 1 C11.67 1.66 11.34 2.32 11 3 C10.01 2.505 10.01 2.505 9 2 C7.46331135 1.77532169 5.92031946 1.59203195 4.375 1.4375 C3.55773437 1.35371094 2.74046875 1.26992188 1.8984375 1.18359375 C0.95871094 1.09271484 0.95871094 1.09271484 0 1 C0 0.67 0 0.34 0 0 Z " transform="translate(526,404)" style="fill: #323232;"/><path d="M0 0 C0.99 0.66 1.98 1.32 3 2 C3.54961712 5.53325294 3.39136716 7.36872985 1.49609375 10.42578125 C-2.26277032 14.30229365 -6.78284229 16.15992607 -11.625 18.4296875 C-16.38144744 20.78270037 -19.51765358 23.23366662 -22.78320312 27.43603516 C-24 29 -24 29 -26.125 31 C-28.18412879 33.19640404 -29.49231198 35.55999043 -30.9296875 38.19140625 C-33.30385524 42.20322983 -36.10202699 45.40135133 -40 48 C-43.1875 48.125 -43.1875 48.125 -46 48 C-46 47.34 -46 46.68 -46 46 C-46.721875 45.773125 -47.44375 45.54625 -48.1875 45.3125 C-51.61649245 43.71230352 -53.62335744 41.93585257 -56 39 C-55.27411915 31.30566304 -47.61124676 24.06487376 -41.984375 19.38671875 C-40.09811589 18.06856524 -38.3882849 17.20198625 -36.25 16.375 C-32.53562643 14.80353426 -31.37974797 13.17299729 -29 10 C-27.36368108 8.95107762 -25.69514137 7.95093297 -24 7 C-23.195625 6.34 -22.39125 5.68 -21.5625 5 C-14.71996898 -0.34051201 -8.52947065 -0.87686147 0 0 Z " transform="translate(472,421)" style="fill: #E8E8E8;"/><path d="M0 0 C2.44138868 0.00534168 4.88259159 0.00002863 7.32397461 -0.00634766 C20.90828987 -0.01344317 34.6942109 0.01635936 48.07983398 2.56787109 C48.79719727 2.6896875 49.51456055 2.81150391 50.25366211 2.93701172 C55.38180331 3.86984042 55.38180331 3.86984042 57.64233398 6.13037109 C53.40834742 6.24703662 49.44274876 6.17816114 45.26342773 5.47412109 C12.11963059 -0.05476403 -25.14554713 0.80384932 -58.05029297 7.68408203 C-61.52944188 8.35701444 -65.02181696 8.71447558 -68.54516602 9.06787109 C-75.2190616 9.79562346 -81.72034066 10.91180241 -88.29077148 12.3137207 C-91.64668168 13.00746013 -95.01004427 13.57532885 -98.39518738 14.10522461 C-109.2256998 15.80724157 -119.86809019 18.159626 -130.54516602 20.63037109 C-133.95468341 21.41442781 -137.36493983 22.19520371 -140.77563477 22.97412109 C-141.59541809 23.16190628 -142.41520142 23.34969147 -143.25982666 23.54316711 C-148.34946704 24.7006552 -153.44913607 25.77027255 -158.57250977 26.76708984 C-163.71115135 27.77466662 -168.71822551 28.94362974 -173.73266602 30.44287109 C-182.48934005 32.97354199 -191.3319775 35.08937884 -200.20678711 37.1628418 C-201.23626465 37.40478271 -202.26574219 37.64672363 -203.32641602 37.89599609 C-204.24874023 38.11030273 -205.17106445 38.32460938 -206.12133789 38.54541016 C-208.37362565 39.05238626 -208.37362565 39.05238626 -210.35766602 40.13037109 C-212.69065262 40.170595 -215.02473267 40.17357356 -217.35766602 40.13037109 C-214.93538098 36.49694354 -213.97640555 36.47325611 -209.85375977 35.44677734 C-208.72953613 35.16116943 -207.6053125 34.87556152 -206.44702148 34.58129883 C-204.63935303 34.1415271 -204.63935303 34.1415271 -202.79516602 33.69287109 C-200.9449585 33.22892944 -200.9449585 33.22892944 -199.05737305 32.75561523 C-195.49406017 31.86653763 -191.92717275 30.99420751 -188.35766602 30.13037109 C-187.10252197 29.82631348 -187.10252197 29.82631348 -185.82202148 29.51611328 C-182.48254365 28.71282326 -179.13893911 27.92995433 -175.79125977 27.16162109 C-172.29705083 26.35696357 -168.81323532 25.51382898 -165.33032227 24.66162109 C-164.25153809 24.39873291 -163.17275391 24.13584473 -162.0612793 23.86499023 C-159.96902336 23.35435968 -157.87747989 22.84079554 -155.78686523 22.32348633 C-148.7638878 20.61610722 -141.70568765 19.21577714 -134.59912109 17.91381836 C-130.24334724 17.11502086 -125.8978667 16.26739958 -121.55297852 15.41162109 C-120.04647118 15.11603247 -118.53996075 14.82045964 -117.03344727 14.52490234 C-114.76123868 14.07865404 -112.48918734 13.63166018 -110.2175293 13.18261719 C-99.61423105 11.08850584 -88.99504915 9.18470139 -78.32641602 7.45407104 C-75.64329848 7.01291548 -72.96601597 6.53912913 -70.28735352 6.07177734 C-63.45150085 4.93403732 -56.57692425 4.12453917 -49.69506836 3.32543945 C-47.49219706 3.0689807 -45.29016788 2.80602819 -43.08813477 2.54248047 C-28.71115229 0.84127685 -14.47713217 -0.03751674 0 0 Z " transform="translate(664.357666015625,539.86962890625)" style="fill: #4B4B4B;"/><path d="M0 0 C0.33 0.66 0.66 1.32 1 2 C0.27832031 3.86914062 0.27832031 3.86914062 -0.921875 6.15625 C-1.36466797 7.00485596 -1.80746094 7.85346191 -2.26367188 8.7277832 C-2.75416016 9.64261475 -3.24464844 10.55744629 -3.75 11.5 C-4.50120117 12.91381958 -4.50120117 12.91381958 -5.26757812 14.35620117 C-18.97909876 39.88511341 -35.80848773 62.84679098 -54.36132812 85.03808594 C-55.47687081 86.37367905 -56.58467293 87.71576703 -57.68554688 89.06347656 C-58.4831543 90.02592285 -58.4831543 90.02592285 -59.296875 91.0078125 C-59.76963867 91.58418457 -60.24240234 92.16055664 -60.72949219 92.75439453 C-62 94 -62 94 -64 94 C-64.25056152 94.57580811 -64.50112305 95.15161621 -64.75927734 95.74487305 C-66.16856699 98.30638593 -67.77908763 100.0218495 -69.8515625 102.08203125 C-70.62113281 102.84966797 -71.39070312 103.61730469 -72.18359375 104.40820312 C-72.98925781 105.20162109 -73.79492188 105.99503906 -74.625 106.8125 C-75.40746094 107.59431641 -76.18992187 108.37613281 -76.99609375 109.18164062 C-81.83800925 113.98742243 -86.81068563 118.57321121 -92 123 C-92.53882813 123.46591553 -93.07765625 123.93183105 -93.6328125 124.41186523 C-101.53291527 131.2377651 -109.6064471 137.78927635 -118 144 C-118.6285791 144.46519043 -119.2571582 144.93038086 -119.90478516 145.40966797 C-131.17132924 153.68470268 -142.87458533 161.05218475 -155 168 C-155.87285645 168.50031738 -156.74571289 169.00063477 -157.64501953 169.51611328 C-205.97814208 197 -205.97814208 197 -220 197 C-220 196.34 -220 195.68 -220 195 C-218.80117188 194.67128906 -218.80117188 194.67128906 -217.578125 194.3359375 C-210.77711899 192.37226675 -204.65054385 190.00381181 -198.390625 186.71484375 C-193.42779477 184.20484091 -188.33320375 182.01067351 -183.22973633 179.80371094 C-178.34031943 177.66925012 -173.89844971 175.25019859 -169.4375 172.3125 C-167 171 -167 171 -163 171 C-162.67 170.01 -162.34 169.02 -162 168 C-161.01 168 -160.02 168 -159 168 C-158.67 167.34 -158.34 166.68 -158 166 C-156.29296875 165.03515625 -156.29296875 165.03515625 -154.1875 164.0625 C-151.81946326 162.93325828 -149.89877521 161.9219123 -147.8125 160.3125 C-145.59348444 158.70562666 -143.68694512 158.37318682 -141 158 C-141 157.34 -141 156.68 -141 156 C-139.0234375 154.66796875 -139.0234375 154.66796875 -136.375 153.1875 C-132.15739364 150.74105137 -128.66974278 148.19108068 -125 145 C-123.61570359 143.88140348 -122.21927757 142.77768879 -120.8125 141.6875 C-120.15894531 141.17574219 -119.50539063 140.66398438 -118.83203125 140.13671875 C-117 139 -117 139 -114 139 C-113.67 138.01 -113.34 137.02 -113 136 C-111.29296875 134.4296875 -111.29296875 134.4296875 -109.1875 132.875 C-108.50042969 132.35679687 -107.81335938 131.83859375 -107.10546875 131.3046875 C-105 130 -105 130 -102.86328125 129.5703125 C-102.24839844 129.38210938 -101.63351562 129.19390625 -101 129 C-100.31946936 127.67368922 -99.65528733 126.33896256 -99 125 C-97.28267489 123.47901963 -95.50397641 122.02607111 -93.6875 120.625 C-89.53014 117.32516334 -86.26120892 114.15062953 -83 110 C-79.5 107 -79.5 107 -77 107 C-76.731875 106.360625 -76.46375 105.72125 -76.1875 105.0625 C-75 103 -75 103 -72 102 C-71.71125 101.4225 -71.4225 100.845 -71.125 100.25 C-69.94629313 97.89258626 -68.51395581 96.42908589 -66.62890625 94.6171875 C-64.47140709 92.47520991 -62.42416679 90.24575353 -60.375 88 C-59.61960937 87.175 -58.86421875 86.35 -58.0859375 85.5 C-55.96461513 83.09797247 -55.96461513 83.09797247 -54.5390625 80.5 C-52.7123474 77.53274705 -50.49405991 75.42634788 -48 73 C-40.96530865 64.81528954 -34.14998854 56.50767115 -29 47 C-28.34 47 -27.68 47 -27 47 C-27 46.01 -27 45.02 -27 44 C-26.34 44 -25.68 44 -25 44 C-24.731875 43.2575 -24.46375 42.515 -24.1875 41.75 C-23.04178803 39.09677227 -21.72915423 37.29112936 -20 35 C-19.24433835 33.72365276 -18.51617197 32.43073066 -17.8125 31.125 C-15.5781236 27.02864327 -13.26826196 22.97949513 -10.9375 18.9375 C-8.74725516 15.13323036 -6.6070593 11.3248624 -4.6875 7.375 C-3.31053927 4.62107854 -1.9614239 2.35370868 0 0 Z " transform="translate(865,686)" style="fill: #BBBBBB;"/><path d="M0 0 C-0.33 0.66 -0.66 1.32 -1 2 C1.97 2.495 1.97 2.495 5 3 C5 3.33 5 3.66 5 4 C4.23816406 4.01417969 3.47632813 4.02835937 2.69140625 4.04296875 C-6.90523881 4.48625947 -13.40041843 6.91156053 -20 14 C-20.66 14.309375 -21.32 14.61875 -22 14.9375 C-24.21019861 15.92012021 -24.21019861 15.92012021 -25.6875 18.375 C-28.05469631 21.0620877 -29.03250349 21.5468881 -32.25 22.75 C-38.28920946 25.16968326 -43.08974982 30.17949963 -46 36 C-47.98 35.67 -49.96 35.34 -52 35 C-52.515625 35.804375 -53.03125 36.60875 -53.5625 37.4375 C-57.8005739 43.77958221 -62.43508879 49.77235613 -68 55 C-67.47838071 51.14001724 -66.69053485 49.69053485 -64 47 C-63.91621094 46.27296875 -63.83242188 45.5459375 -63.74609375 44.796875 C-62.70656685 40.90000977 -60.29631726 38.57561518 -57.5625 35.75 C-57.01899902 35.17789795 -56.47549805 34.6057959 -55.91552734 34.01635742 C-44.59896558 22.22813434 -32.0068873 12.86258282 -18.0625 4.4375 C-17.36503662 4.00767822 -16.66757324 3.57785645 -15.94897461 3.13500977 C-10.77962855 0.08886536 -5.99584085 -1.99861362 0 0 Z " transform="translate(466,417)" style="fill: #838786;"/><path d="M0 0 C0.99 0.66 1.98 1.32 3 2 C3.53697559 5.45198593 3.31536772 7.39929958 1.6875 10.5 C-3.45648548 15.28510277 -9.68313787 19.3215666 -16.875 19.5625 C-20.57526706 19.25691242 -23.29723285 18.70276715 -26 16 C-26.75 12.6875 -26.75 12.6875 -26 9 C-23.98034667 6.51294119 -21.64246055 4.7869098 -19 3 C-18.13375 2.38125 -17.2675 1.7625 -16.375 1.125 C-11.04837924 -0.65054025 -5.56305869 -0.57190323 0 0 Z " transform="translate(472,421)" style="fill: #EAEAE9;"/><path d="M0 0 C1.22203125 0.08765625 2.4440625 0.1753125 3.703125 0.265625 C6.75 0.75 6.75 0.75 8.75 2.75 C2.42239641 4.61951924 -4.44365395 4.45490829 -11 4.8125 C-11.81011536 4.85669067 -12.62023071 4.90088135 -13.45489502 4.94641113 C-45.05935739 6.60270651 -77.02866898 6.8264965 -108.625 4.875 C-109.91841309 4.79668945 -111.21182617 4.71837891 -112.54443359 4.63769531 C-120.98034629 4.01965371 -120.98034629 4.01965371 -123.25 1.75 C-119.04629282 0.5698681 -114.96129659 0.6034977 -110.625 0.625 C-109.48998047 0.61919922 -109.48998047 0.61919922 -108.33203125 0.61328125 C-104.53308952 0.61970924 -100.83557713 0.77250901 -97.06591797 1.24780273 C-89.20937447 2.05544851 -81.31080664 1.91448429 -73.421875 1.91796875 C-71.70176161 1.92118775 -69.98164848 1.92455229 -68.26153564 1.92805481 C-64.67435063 1.93401154 -61.0871896 1.93589802 -57.5 1.93530273 C-52.91142943 1.9352007 -48.32301214 1.94891099 -43.734478 1.96607494 C-40.18966975 1.97720203 -36.64489869 1.97922181 -33.10007477 1.97869301 C-31.40804765 1.97986981 -29.71601948 1.98427469 -28.0240097 1.99202538 C-25.66010249 2.00185032 -23.29653007 1.99893866 -20.93261719 1.99291992 C-20.24054169 1.99853943 -19.54846619 2.00415894 -18.8354187 2.00994873 C-12.16055843 1.96688211 -6.75878159 -0.54645468 0 0 Z " transform="translate(475.25,616.25)" style="fill: #2A2A2B;"/><path d="M0 0 C0 0.33 0 0.66 0 1 C-1.51460815 1.27880005 -1.51460815 1.27880005 -3.05981445 1.56323242 C-4.49430376 1.82730915 -5.92879266 2.09138812 -7.36328125 2.35546875 C-8.13331482 2.49721527 -8.90334839 2.63896179 -9.69671631 2.78500366 C-13.98926783 3.57527384 -18.28171034 4.36613001 -22.57397461 5.15795898 C-24.33577164 5.48292697 -26.09757177 5.80787814 -27.859375 6.1328125 C-28.73557999 6.2944136 -29.61178497 6.45601471 -30.51454163 6.62251282 C-35.51374881 7.54386411 -40.51402181 8.45893618 -45.515625 9.3671875 C-74.82799891 14.70450458 -104.10263368 20.70829156 -133 28 C-136.30063312 28.76681376 -139.60347221 29.52373216 -142.90625 30.28125 C-143.9271875 30.5184375 -144.948125 30.755625 -146 31 C-146.66128906 31.15339844 -147.32257813 31.30679688 -148.00390625 31.46484375 C-151.98598052 32.53244487 -155.88929639 33.88400033 -159.80859375 35.16015625 C-162.72103335 35.92658772 -165.01331205 36.17306042 -168 36 C-168 35.34 -168 34.68 -168 34 C-165.73050898 33.32844651 -163.4596039 32.6626037 -161.1875 32 C-159.92292969 31.62875 -158.65835937 31.2575 -157.35546875 30.875 C-154 30 -154 30 -151 30 C-150.67 29.34 -150.34 28.68 -150 28 C-148.16166982 27.75503383 -146.32143967 27.52100142 -144.4765625 27.33154297 C-139.56532573 26.6740647 -134.79725114 25.27819032 -130 24.0625 C-98.26210015 16.25961519 -66.17673542 10.06075498 -34 4.375 C-32.75327515 4.15290863 -31.50655029 3.93081726 -30.2220459 3.70199585 C-26.67024413 3.07175119 -23.11681135 2.451854 -19.5625 1.8359375 C-18.50935608 1.64895798 -17.45621216 1.46197845 -16.37115479 1.26933289 C-10.82427028 0.32381678 -5.62679221 -0.19700479 0 0 Z " transform="translate(553,496)" style="fill: #DFDEDC;"/><path d="M0 0 C0.99 0 1.98 0 3 0 C3.12375 1.423125 3.12375 1.423125 3.25 2.875 C3.66035644 6.01762536 3.66035644 6.01762536 5.6875 7.3125 C8.43874819 8.13043865 11.15787126 8.61243699 14 9 C10.34958384 13.36269249 6.61135582 17.47373808 2.515625 21.421875 C0.78603688 23.12998502 0.78603688 23.12998502 -1 26 C-1 25.34 -1 24.68 -1 24 C-1.59425781 23.73960937 -2.18851562 23.47921875 -2.80078125 23.2109375 C-5.14110539 21.92230431 -6.46596641 20.65189559 -8.1875 18.625 C-8.69667969 18.03976562 -9.20585937 17.45453125 -9.73046875 16.8515625 C-11.07559273 14.88975091 -11.57514402 13.323911 -12 11 C-12.99 11 -13.98 11 -15 11 C-12.54573688 8.93841898 -10.52106808 7.81184817 -7.5 6.625 C-3.74561598 4.88189313 -2.44567657 3.2317869 0 0 Z " transform="translate(443,431)" style="fill: #C4CACA;"/><path d="M0 0 C0.33 0 0.66 0 1 0 C1.43181519 2.95073716 1.57569101 5.12715364 -0.10961914 7.68237305 C-3.68479562 11.77725524 -7.37631922 15.11798249 -11.8125 18.25 C-12.78582275 18.94814819 -12.78582275 18.94814819 -13.77880859 19.66040039 C-27.9581962 29.73219982 -42.79360497 38.57627219 -58 47 C-58.84353027 47.46841309 -59.68706055 47.93682617 -60.55615234 48.41943359 C-62.92705908 49.72894874 -65.30500637 51.02420765 -67.6875 52.3125 C-68.40035156 52.7038916 -69.11320313 53.0952832 -69.84765625 53.49853516 C-71.53288723 54.39568752 -73.2631387 55.20741016 -75 56 C-75.66 55.67 -76.32 55.34 -77 55 C-74.67945125 51.51917687 -73.11235151 50.87540514 -69.375 49.125 C-64.89382348 46.97317454 -60.72230456 44.68751151 -56.62109375 41.8828125 C-55 41 -55 41 -52 41 C-52 40.34 -52 39.68 -52 39 C-50.27523437 38.17048828 -50.27523437 38.17048828 -48.515625 37.32421875 C-43.32055756 34.72782932 -38.51301998 31.60743584 -33.6484375 28.44726562 C-32.97554687 28.01736328 -32.30265625 27.58746094 -31.609375 27.14453125 C-31.01092773 26.75628174 -30.41248047 26.36803223 -29.79589844 25.96801758 C-27.8818676 24.93632478 -26.12253806 24.43776617 -24 24 C-24 23.34 -24 22.68 -24 22 C-22.20963542 21.0234375 -20.41927083 20.046875 -18.62890625 19.0703125 C-16.83381685 18.08589976 -16.83381685 18.08589976 -16 16 C-15.01 16 -14.02 16 -13 16 C-12.75121094 15.39929688 -12.50242187 14.79859375 -12.24609375 14.1796875 C-10.81126878 11.66986827 -9.45962702 10.70522898 -7.0625 9.125 C-3.42359583 6.53616074 -1.61959661 4.25144111 0 0 Z " transform="translate(800,491)" style="fill: #1F1F1F;"/><path d="M0 0 C-10.74769605 3.11270934 -21.50653168 6.16723255 -32.3203125 9.04296875 C-51.20090309 14.06812544 -70.05174045 19.12050758 -88.6875 25 C-89.38595032 25.2192514 -90.08440063 25.43850281 -90.80401611 25.66439819 C-98.79077815 28.18183759 -106.63779499 30.93511061 -114.40161133 34.08203125 C-117 35 -117 35 -120 35 C-120 34.34 -120 33.68 -120 33 C-102.36479067 26.74365134 -102.36479067 26.74365134 -94 24 C-93.31421875 23.76796875 -92.6284375 23.5359375 -91.921875 23.296875 C-82.03955616 19.95537151 -72.07329708 16.95944924 -62 14.25 C-61.1867627 14.02715332 -60.37352539 13.80430664 -59.53564453 13.57470703 C-55.60634141 12.53457335 -52.10463182 11.70208317 -48 12 C-48 11.34 -48 10.68 -48 10 C-47.43039551 9.89623047 -46.86079102 9.79246094 -46.27392578 9.68554688 C-39.03805892 8.3089322 -31.97431879 6.45251691 -24.875 4.5 C-21.55794087 3.59396899 -18.24052192 2.68956122 -14.92089844 1.79296875 C-13.12945006 1.30662436 -11.34037127 0.81130876 -9.55566406 0.30078125 C-5.93765752 -0.69705859 -3.58126345 -1.09348564 0 0 Z " transform="translate(376,552)" style="fill: #B7B6B4;"/><path d="M0 0 C0.495 0.99 0.495 0.99 1 2 C-21.86577326 8.48514404 -21.86577326 8.48514404 -32.51074219 11.18041992 C-60.37620953 18.24612889 -88.17793661 27.04339778 -114.7487793 38.05712891 C-116.47791193 38.75958255 -118.23681479 39.38802067 -120 40 C-120.66 39.67 -121.32 39.34 -122 39 C-119.0724592 36.59791524 -116.38370917 35.2367824 -112.8125 34 C-111.93207031 33.690625 -111.05164063 33.38125 -110.14453125 33.0625 C-107.04994111 32.01687451 -103.95236686 30.98090493 -100.8527832 29.95019531 C-97.96271739 28.98758203 -95.07403457 28.02087939 -92.18559265 27.05340576 C-89.27129113 26.07753741 -86.35648695 25.10317515 -83.44165039 24.12890625 C-81.92975505 23.62324906 -80.41803823 23.11705777 -78.90649414 22.61035156 C-76.70245623 21.87163164 -74.49777908 21.13484833 -72.29296875 20.3984375 C-71.28353462 20.05937881 -71.28353462 20.05937881 -70.25370789 19.71347046 C-62.11427029 17 -62.11427029 17 -58 17 C-58 16.34 -58 15.68 -58 15 C-57.34257812 14.84144531 -56.68515625 14.68289063 -56.0078125 14.51953125 C-49.97213771 13.03923703 -43.97893813 11.44362239 -38 9.75 C-25.41315572 6.1964951 -12.6971991 3.13020286 0 0 Z " transform="translate(380,531)" style="fill: #D8D6D3;"/><path d="M0 0 C-1.35565212 2.71130424 -3.08159562 2.90621622 -5.83573914 3.85177612 C-6.52287491 4.07858063 -7.21001068 4.30538513 -7.91796875 4.5390625 C-8.63503494 4.78125519 -9.35210114 5.02344788 -10.09089661 5.27297974 C-12.45341129 6.06638669 -14.81996954 6.8466972 -17.1875 7.625 C-17.99034424 7.89123169 -18.79318848 8.15746338 -19.62036133 8.4317627 C-30.99437322 12.19573048 -42.42086265 15.67352894 -54 18.75 C-55.25578857 19.08467285 -56.51157715 19.4193457 -57.80541992 19.76416016 C-66.44389205 22 -66.44389205 22 -71 22 C-71 21.34 -71 20.68 -71 20 C-70.27409668 19.79842285 -69.54819336 19.5968457 -68.80029297 19.38916016 C-65.49142033 18.46935379 -62.18320652 17.54719916 -58.875 16.625 C-57.73289062 16.30789063 -56.59078125 15.99078125 -55.4140625 15.6640625 C-53.75117187 15.2 -53.75117187 15.2 -52.0546875 14.7265625 C-51.03874512 14.44377441 -50.02280273 14.16098633 -48.97607422 13.86962891 C-45.95579907 12.98708419 -42.98221667 12.00277289 -40 11 C-38.66168463 10.59597152 -37.32077895 10.20034528 -35.9765625 9.81640625 C-35.265 9.61080078 -34.5534375 9.40519531 -33.8203125 9.19335938 C-32.36502348 8.77515799 -30.90929769 8.35847335 -29.453125 7.94335938 C-24.53633781 6.5189111 -19.77656977 4.83537205 -15 3 C-12.90123761 2.23500732 -10.79749733 1.48343617 -8.6875 0.75 C-7.68074219 0.39421875 -6.67398438 0.0384375 -5.63671875 -0.328125 C-3 -1 -3 -1 0 0 Z " transform="translate(647,580)" style="fill: #212121;"/><path d="M0 0 C1.32 0 2.64 0 4 0 C0.97782256 7.70998676 -9.110792 12.58955785 -16.3203125 15.90234375 C-31.359788 22.06282861 -50.21705075 24.17533917 -66 19 C-66.33 18.34 -66.66 17.68 -67 17 C-65.7934375 17.0721875 -64.586875 17.144375 -63.34375 17.21875 C-61.72917368 17.31262072 -60.11458994 17.40636391 -58.5 17.5 C-57.70851563 17.54769531 -56.91703125 17.59539063 -56.1015625 17.64453125 C-47.30687485 18.65466709 -47.30687485 18.65466709 -39 17 C-36.69044558 16.70510114 -34.37718857 16.43894333 -32.0625 16.1875 C-22.04414917 14.95574538 -10.51579998 12.23845826 -3.5390625 4.34765625 C-3.11367188 3.79980469 -2.68828125 3.25195312 -2.25 2.6875 C-1.5075 1.800625 -0.765 0.91375 0 0 Z " transform="translate(571,603)" style="fill: #19191A;"/><path d="M0 0 C0.33 0.66 0.66 1.32 1 2 C2.09691162 1.83773926 3.19382324 1.67547852 4.32397461 1.50830078 C9.49131487 0.86584521 14.61539753 0.85627555 19.81640625 0.8671875 C20.83169907 0.86623077 21.84699188 0.86527405 22.89305115 0.86428833 C25.02855492 0.86361103 27.16406079 0.86543374 29.29956055 0.86962891 C32.55587408 0.87498909 35.81205005 0.86966569 39.06835938 0.86328125 C41.15104197 0.863942 43.23372448 0.86522311 45.31640625 0.8671875 C46.76666954 0.86415115 46.76666954 0.86415115 48.24623108 0.86105347 C53.27255587 0.87837617 58.04565601 1.13989753 63 2 C63 2.33 63 2.66 63 3 C61.41773035 3.19627391 59.83410729 3.38165538 58.25 3.5625 C57.36828125 3.66691406 56.4865625 3.77132813 55.578125 3.87890625 C53.11567549 3.99456676 51.33461936 3.73638695 49 3 C49.495 4.485 49.495 4.485 50 6 C46.0186217 7.3271261 42.14954773 7.06915913 38 7 C37.505 5.515 37.505 5.515 37 4 C36.01257813 4.01160156 35.02515625 4.02320313 34.0078125 4.03515625 C32.72648438 4.04417969 31.44515625 4.05320312 30.125 4.0625 C28.84882812 4.07410156 27.57265625 4.08570313 26.2578125 4.09765625 C23 4 23 4 21 3 C19.18155094 2.99560938 17.36272613 3.05898272 15.546875 3.15625 C14.45246094 3.20910156 13.35804688 3.26195312 12.23046875 3.31640625 C9.92573775 3.43798016 7.62104936 3.56036482 5.31640625 3.68359375 C4.21683594 3.73644531 3.11726562 3.78929687 1.984375 3.84375 C0.47955566 3.92399414 0.47955566 3.92399414 -1.05566406 4.00585938 C-4.14252838 3.99971636 -6.97411354 3.58739782 -10 3 C-10 2.67 -10 2.34 -10 2 C-6.7 2 -3.4 2 0 2 C0 1.34 0 0.68 0 0 Z " transform="translate(642,460)" style="fill: #727270;"/><path d="M0 0 C12.13728631 -0.33269719 23.19000953 -0.10199117 35 3 C36.00643555 3.25740967 36.00643555 3.25740967 37.03320312 3.52001953 C45.24074144 5.64797027 53.18094072 8.27713649 61 11.5625 C61.68892334 11.84319336 62.37784668 12.12388672 63.08764648 12.41308594 C67.7778999 14.47528851 67.7778999 14.47528851 68.9375 17.21484375 C68.958125 17.80394531 68.97875 18.39304687 69 19 C66 19 66 19 64.5859375 17.59765625 C64.06257812 17.07042969 63.53921875 16.54320312 63 16 C60.90862552 15.07444418 60.90862552 15.07444418 58.625 14.4375 C57.8309375 14.19 57.036875 13.9425 56.21875 13.6875 C55.4865625 13.460625 54.754375 13.23375 54 13 C50.9195869 11.86158646 48.75356573 10.83571048 46 9 C44.03289833 8.60159966 42.05057889 8.27523466 40.0625 8 C36.22474946 7.46737539 33.43189125 6.72643002 30 5 C27.68307259 4.65715794 27.68307259 4.65715794 25.25 4.5625 C20.34929559 4.16986196 16.51141795 2.92152987 12 1 C11.67 1.66 11.34 2.32 11 3 C10.34 2.67 9.68 2.34 9 2 C7.46331135 1.77532169 5.92031946 1.59203195 4.375 1.4375 C3.55773437 1.35371094 2.74046875 1.26992188 1.8984375 1.18359375 C1.27195312 1.12300781 0.64546875 1.06242187 0 1 C0 0.67 0 0.34 0 0 Z " transform="translate(526,404)" style="fill: #484C4E;"/><path d="M0 0 C19.72651732 -0.09128177 39.44246436 0.1616848 59.16595459 0.46356201 C63.22324639 0.52525062 67.28056984 0.58478509 71.33789062 0.64453125 C79.22529186 0.76097962 87.11265644 0.87970876 95 1 C95 1.33 95 1.66 95 2 C78.10574496 3.35367698 61.17567353 3.11753506 44.24182129 3.06866455 C40.25887589 3.05829069 36.27592386 3.0538373 32.29296875 3.04882812 C24.52862808 3.03821965 16.76431967 3.02123504 9 3 C9 2.67 9 2.34 9 2 C6.03 1.67 3.06 1.34 0 1 C0 0.67 0 0.34 0 0 Z " transform="translate(361,621)" style="fill: #DDDDDD;"/><path d="M0 0 C1.22589844 0.01353516 1.22589844 0.01353516 2.4765625 0.02734375 C3.10304688 0.03894531 3.72953125 0.05054688 4.375 0.0625 C4.87 2.0425 4.87 2.0425 5.375 4.0625 C4.71306641 4.08231934 4.05113281 4.10213867 3.36914062 4.12255859 C-12.68283389 4.62245663 -28.63507671 5.56467108 -44.625 7.0625 C-44.295 6.0725 -43.965 5.0825 -43.625 4.0625 C-42.490625 3.918125 -41.35625 3.77375 -40.1875 3.625 C-36.81722799 3.45078522 -36.81722799 3.45078522 -35.625 2.0625 C-28.04811833 0.78123191 -20.30078376 0.98262715 -12.64477539 1.09936523 C-8.13644809 1.15019465 -4.43583051 -0.06336901 0 0 Z " transform="translate(624.625,451.9375)" style="fill: #585C5F;"/><path d="M0 0 C-2.42919532 2.7853422 -4.90307195 4.04724841 -8.26953125 5.5234375 C-9.31737793 5.98516357 -10.36522461 6.44688965 -11.44482422 6.92260742 C-12.55615723 7.40189697 -13.66749023 7.88118652 -14.8125 8.375 C-15.93930176 8.86524658 -17.06610352 9.35549316 -18.22705078 9.8605957 C-39.42071192 19 -39.42071192 19 -45 19 C-44.67 18.01 -44.34 17.02 -44 16 C-41.76651231 14.89383424 -39.63921065 13.98655297 -37.3125 13.125 C-36.64710205 12.8681543 -35.9817041 12.61130859 -35.29614258 12.34667969 C-29.48858134 10.12422733 -23.61925937 8.07432521 -17.73046875 6.078125 C-14.90750264 5.17283829 -14.90750264 5.17283829 -13 3 C-11.19189429 2.21034889 -9.35372916 1.4881355 -7.5 0.8125 C-6.5203125 0.44769531 -5.540625 0.08289063 -4.53125 -0.29296875 C-2 -1 -2 -1 0 0 Z " transform="translate(693,561)" style="fill: #1F1F1F;"/><path d="M0 0 C-3.89784915 2.44414846 -8.2003205 2.77478682 -12.6640625 3.3671875 C-13.52126892 3.48691422 -14.37847534 3.60664093 -15.26165771 3.72999573 C-18.04859123 4.11809209 -20.83672723 4.49665672 -23.625 4.875 C-27.44311427 5.40203681 -31.26062764 5.93335929 -35.078125 6.46484375 C-36.01977509 6.59526566 -36.96142517 6.72568756 -37.93161011 6.86006165 C-43.43731598 7.62669375 -48.93331316 8.43543057 -54.421875 9.31640625 C-55.6186084 9.50799316 -56.8153418 9.69958008 -58.04833984 9.89697266 C-60.21116085 10.24839536 -62.37301874 10.60581635 -64.53369141 10.97021484 C-65.95174072 11.1995874 -65.95174072 11.1995874 -67.3984375 11.43359375 C-68.59992432 11.63553345 -68.59992432 11.63553345 -69.82568359 11.84155273 C-72.12285327 12.00895259 -73.81320262 11.68372493 -76 11 C-76 10.67 -76 10.34 -76 10 C-59.64145122 7.37540824 -43.27175803 4.83563811 -26.86608887 2.52182007 C-25.29917071 2.30042002 -23.73251439 2.07715814 -22.1661377 1.85195923 C-19.95527046 1.53490902 -17.74347426 1.22538965 -15.53125 0.91796875 C-14.26861328 0.74031982 -13.00597656 0.5626709 -11.70507812 0.37963867 C-7.75379161 -0.0252276 -3.9682863 -0.06450936 0 0 Z " transform="translate(628,485)" style="fill: #B9B8B6;"/><path d="M0 0 C0.53625 0.2475 1.0725 0.495 1.625 0.75 C-0.88293651 4.51190476 -0.88293651 4.51190476 -3.3125 5.6875 C-5.58269744 6.65715829 -5.58269744 6.65715829 -7.0625 9.125 C-9.42969631 11.8120877 -10.40750349 12.2968881 -13.625 13.5 C-19.66420946 15.91968326 -24.46474982 20.92949963 -27.375 26.75 C-28.695 26.42 -30.015 26.09 -31.375 25.75 C-31.375 22.75 -31.375 22.75 -29.5 20.4375 C-26.26729382 17.36316847 -22.44126797 15.27491088 -18.58203125 13.08203125 C-16.27520777 11.81021687 -16.27520777 11.81021687 -14.375 9.75 C-13.385 9.75 -12.395 9.75 -11.375 9.75 C-11.375 9.09 -11.375 8.43 -11.375 7.75 C-10.715 7.75 -10.055 7.75 -9.375 7.75 C-9.33375 7.1725 -9.2925 6.595 -9.25 6 C-7.7321524 2.09696332 -4.22425143 -0.44465805 0 0 Z " transform="translate(447.375,426.25)" style="fill: #9EA5A6;"/><path d="M0 0 C0.33 0 0.66 0 1 0 C1 1.65 1 3.3 1 5 C2.216875 4.505 3.43375 4.01 4.6875 3.5 C7.92486738 2.27520559 10.50099357 1.67196815 14 2 C11.64164671 7.33732586 8.8652059 8.76556864 3.4375 10.875 C-2.44968553 13 -2.44968553 13 -6 13 C-6.33 13.99 -6.66 14.98 -7 16 C-7.33 15.01 -7.66 14.02 -8 13 C-7.34 12.01 -6.68 11.02 -6 10 C-7.32 10.33 -8.64 10.66 -10 11 C-10.33 10.34 -10.66 9.68 -11 9 C-4.5 6 -4.5 6 0 6 C0 4.02 0 2.04 0 0 Z " transform="translate(378,506)" style="fill: #BFBCB9;"/><path d="M0 0 C1.22203125 0.08765625 2.4440625 0.1753125 3.703125 0.265625 C6.75 0.75 6.75 0.75 8.75 2.75 C3.96526395 4.08835903 -0.8078727 4.16218302 -5.75 4.375 C-6.78705078 4.42003662 -7.82410156 4.46507324 -8.89257812 4.51147461 C-21.69312386 4.96768849 -34.46412207 4.37874355 -47.25 3.75 C-47.25 3.42 -47.25 3.09 -47.25 2.75 C-46.25145996 2.73018066 -45.25291992 2.71036133 -44.22412109 2.68994141 C-40.50024268 2.61355736 -36.77673839 2.524892 -33.05322266 2.43261719 C-31.44522518 2.39446241 -29.83714627 2.35958652 -28.22900391 2.328125 C-25.91018684 2.2821794 -23.5919238 2.22423619 -21.2734375 2.1640625 C-20.56069672 2.15251129 -19.84795593 2.14096008 -19.11361694 2.12905884 C-12.33841459 1.93115998 -6.8481113 -0.55367708 0 0 Z " transform="translate(475.25,616.25)" style="fill: #242425;"/><path d="M0 0 C-3.06230716 1.68389305 -5.94374621 2.57634133 -9.34765625 3.34448242 C-10.94951782 3.7094709 -10.94951782 3.7094709 -12.58374023 4.08183289 C-13.73173096 4.33713272 -14.87972168 4.59243256 -16.0625 4.85546875 C-17.24593994 5.12136307 -18.42937988 5.38725739 -19.64868164 5.66120911 C-22.14961583 6.22113467 -24.65118058 6.77825017 -27.15332031 7.33276367 C-30.98744823 8.18471098 -34.81793577 9.05183553 -38.6484375 9.91992188 C-41.07791771 10.4618676 -43.5075988 11.00291374 -45.9375 11.54296875 C-47.08549072 11.80434128 -48.23348145 12.06571381 -49.41625977 12.33500671 C-50.48416748 12.56887589 -51.5520752 12.80274506 -52.65234375 13.04370117 C-53.59070068 13.25306808 -54.52905762 13.462435 -55.49584961 13.67814636 C-58.01518417 14.00195159 -59.61276903 13.80220915 -62 13 C-60.74089633 12.33158694 -59.46653371 11.69193691 -58.1875 11.0625 C-57.47980469 10.70285156 -56.77210938 10.34320312 -56.04296875 9.97265625 C-53.18720157 9.05983722 -50.93792651 8.77498698 -47.96875 8.5625 C-41.54308239 8.07461823 -35.52916171 6.57827232 -29.3125 4.9375 C-28.21744141 4.65583984 -27.12238281 4.37417969 -25.99414062 4.08398438 C-23.32735821 3.39690943 -20.66284124 2.70216454 -18 2 C-18 1.67 -18 1.34 -18 1 C-16.12528812 0.83012319 -14.25021305 0.66425224 -12.375 0.5 C-11.33085937 0.4071875 -10.28671875 0.314375 -9.2109375 0.21875 C-6.12853212 0.00875645 -3.08834771 -0.03709727 0 0 Z " transform="translate(476,528)" style="fill: #D6D4D2;"/><path d="M0 0 C0 0.33 0 0.66 0 1 C-0.60328125 1.13277344 -1.2065625 1.26554688 -1.828125 1.40234375 C-3.02695312 1.66724609 -3.02695312 1.66724609 -4.25 1.9375 C-5.03890625 2.11152344 -5.8278125 2.28554688 -6.640625 2.46484375 C-8.0605108 2.78690394 -9.47814335 3.11953584 -10.890625 3.47265625 C-14.88111815 4.47027954 -18.8971744 5.36173725 -22.90625 6.28125 C-23.9271875 6.5184375 -24.948125 6.755625 -26 7 C-26.66128906 7.15339844 -27.32257813 7.30679688 -28.00390625 7.46484375 C-31.98598052 8.53244487 -35.88929639 9.88400033 -39.80859375 11.16015625 C-42.72103335 11.92658772 -45.01331205 12.17306042 -48 12 C-48 11.34 -48 10.68 -48 10 C-45.73050898 9.32844651 -43.4596039 8.6626037 -41.1875 8 C-39.92292969 7.62875 -38.65835937 7.2575 -37.35546875 6.875 C-34 6 -34 6 -31 6 C-30.67 5.34 -30.34 4.68 -30 4 C-28.08847036 3.73532667 -26.17484175 3.48043985 -24.25488281 3.28613281 C-20.01118199 2.74762942 -15.9277699 1.46541572 -11.82421875 0.28515625 C-7.52244015 -0.87141479 -4.33027616 -1.06570659 0 0 Z " transform="translate(433,520)" style="fill: #D7D5D1;"/><path d="M0 0 C2.475 0.495 2.475 0.495 5 1 C4.67 1.99 4.34 2.98 4 4 C-0.20588488 4.70307196 -4.41497615 5.38469063 -8.625 6.0625 C-9.81480469 6.26166016 -11.00460937 6.46082031 -12.23046875 6.66601562 C-13.96103516 6.94155273 -13.96103516 6.94155273 -15.7265625 7.22265625 C-17.31331787 7.48187866 -17.31331787 7.48187866 -18.93212891 7.74633789 C-22.1564058 8.01293217 -24.84451129 7.66376925 -28 7 C-24.00252456 3.00252456 -18.63141795 2.72165907 -13.2421875 2.22265625 C-11.21425 2.0212757 -9.19856778 1.70468324 -7.1875 1.375 C-4.33959005 1.03995177 -2.6578742 1.04316529 0 2 C0 1.34 0 0.68 0 0 Z " transform="translate(576,455)" style="fill: #686D6E;"/><path d="M0 0 C0.33 0.99 0.66 1.98 1 3 C-0.26713308 4.71753583 -1.61740892 6.37396265 -3 8 C-8.21662894 15.5692263 -12.68534051 22.79738358 -14 32 C-15.4340589 37.63380282 -15.4340589 37.63380282 -18.125 39.375 C-18.74375 39.58125 -19.3625 39.7875 -20 40 C-19.48610188 33.97775635 -17.62261247 29.29016848 -15 23.875 C-14.60425781 23.04693848 -14.20851563 22.21887695 -13.80078125 21.36572266 C-10.16582669 13.96251276 -5.88661694 5.88661694 0 0 Z " transform="translate(402,461)" style="fill: #5D6263;"/><path d="M0 0 C0.33 0.99 0.66 1.98 1 3 C-0.38549174 5.1545312 -1.80370363 7.11284035 -3.375 9.125 C-9.22679561 16.93155543 -13.65230666 25.29091979 -18 34 C-18.57878906 35.155 -19.15757812 36.31 -19.75390625 37.5 C-20.16511719 38.325 -20.57632812 39.15 -21 40 C-21.66 39.67 -22.32 39.34 -23 39 C-21.86105373 34.03005262 -20.17497779 30.44085177 -17.375 26.19921875 C-14.93661913 22.2991948 -12.99374957 18.14021187 -11 14 C-10.34 14 -9.68 14 -9 14 C-8.9071875 13.195625 -8.9071875 13.195625 -8.8125 12.375 C-7.63386649 8.9297636 -5.38139491 6.72159418 -3 4 C-1.9888778 2.67508126 -0.98336098 1.34565187 0 0 Z " transform="translate(404,455)" style="fill: #E6E6E6;"/><path d="M0 0 C1.03833984 0.19916016 1.03833984 0.19916016 2.09765625 0.40234375 C10.40328679 1.90151553 18.58296855 2.56305028 27 3 C27 3.33 27 3.66 27 4 C26.34773437 4.04898438 25.69546875 4.09796875 25.0234375 4.1484375 C20.98679276 4.49375519 17.46737327 4.83555385 13.625 6.1875 C11 7 11 7 9.13671875 6.05078125 C6.58869068 4.79772906 5.00339564 4.8580966 2.1875 5 C-3.69688663 5.12150651 -8.00987189 4.32675207 -13 1 C-8.71 1.33 -4.42 1.66 0 2 C0 1.34 0 0.68 0 0 Z " transform="translate(503,621)" style="fill: #C6C6C5;"/><path d="M0 0 C-8.01067185 3.88884965 -16.32820929 6.39373664 -24.875 8.8125 C-25.96868896 9.12646729 -27.06237793 9.44043457 -28.18920898 9.76391602 C-29.23794189 10.05451904 -30.2866748 10.34512207 -31.3671875 10.64453125 C-32.77653564 11.03668823 -32.77653564 11.03668823 -34.21435547 11.43676758 C-37.20906518 12.04227111 -39.9527045 12.09749323 -43 12 C-40.05885361 10.03923574 -38.06492275 9.35953774 -34.6875 8.5 C-30.72648607 7.48350549 -26.87350335 6.3110319 -23 5 C-19.71717613 3.96883079 -16.4285067 2.95920615 -13.13671875 1.95703125 C-11.32318545 1.40371162 -9.51185194 0.84282797 -7.70703125 0.26171875 C-4.51830267 -0.73773349 -3.27023525 -1.09007842 0 0 Z " transform="translate(644,884)" style="fill: #BFBFBE;"/><path d="M0 0 C-3.06976521 2.04651014 -5.07167466 2.6338239 -8.62890625 3.4375 C-9.74716797 3.69273437 -10.86542969 3.94796875 -12.01757812 4.2109375 C-13.18740234 4.47132813 -14.35722656 4.73171875 -15.5625 5 C-16.70525391 5.26039063 -17.84800781 5.52078125 -19.02539062 5.7890625 C-39.01495774 10.31500222 -39.01495774 10.31500222 -45 10 C-42.17276656 8.11517771 -40.64391603 7.53159687 -37.421875 6.81640625 C-36.06147095 6.51029419 -36.06147095 6.51029419 -34.67358398 6.19799805 C-33.70880127 5.98828369 -32.74401855 5.77856934 -31.75 5.5625 C-30.76523682 5.34440674 -29.78047363 5.12631348 -28.76586914 4.90161133 C-25.84573727 4.25895866 -22.92348068 3.62722505 -20 3 C-19.20126465 2.82758789 -18.4025293 2.65517578 -17.57958984 2.47753906 C-5.16097813 -0.18260444 -5.16097813 -0.18260444 0 0 Z " transform="translate(475,510)" style="fill: #EBE9E7;"/><path d="M0 0 C0.495 0.99 0.495 0.99 1 2 C-6.21540939 4.03869559 -13.43544345 6.06014639 -20.65966797 8.06738281 C-23.70451791 8.91750171 -26.74502021 9.78165489 -29.78515625 10.6484375 C-31.48154711 11.1205962 -33.17814811 11.59200085 -34.875 12.0625 C-35.65786377 12.29026123 -36.44072754 12.51802246 -37.24731445 12.75268555 C-39.4296875 13.34765625 -39.4296875 13.34765625 -43 14 C-43.99 13.34 -44.98 12.68 -46 12 C-30.76030737 7.62564378 -15.39286538 3.79475747 0 0 Z " transform="translate(380,531)" style="fill: #D3D1CD;"/><path d="M0 0 C1.2065625 0.0721875 2.413125 0.144375 3.65625 0.21875 C5.27082632 0.31262072 6.88541006 0.40636391 8.5 0.5 C9.29148437 0.54769531 10.08296875 0.59539063 10.8984375 0.64453125 C19.69312515 1.65466709 19.69312515 1.65466709 28 0 C29.99960012 -0.039992 32.00047242 -0.04346799 34 0 C32.02 0.99 32.02 0.99 30 2 C31.32 2.66 32.64 3.32 34 4 C30.37507033 4.05891984 26.75026666 4.0939009 23.125 4.125 C21.60519531 4.15013672 21.60519531 4.15013672 20.0546875 4.17578125 C13.62288645 4.21701074 7.15397242 4.08042093 1 2 C0.67 1.34 0.34 0.68 0 0 Z " transform="translate(504,620)" style="fill: #1F2020;"/><path d="M0 0 C0.70744354 0.00141495 1.41488708 0.0028299 2.14376831 0.00428772 C4.40578419 0.00989025 6.66770148 0.02244307 8.9296875 0.03515625 C10.46223815 0.04017093 11.99479036 0.04473389 13.52734375 0.04882812 C17.28649638 0.05986048 21.04557522 0.07712673 24.8046875 0.09765625 C24.8046875 0.42765625 24.8046875 0.75765625 24.8046875 1.09765625 C23.80566406 1.14664062 22.80664062 1.195625 21.77734375 1.24609375 C20.48699219 1.32085937 19.19664062 1.395625 17.8671875 1.47265625 C16.57941406 1.54226563 15.29164063 1.611875 13.96484375 1.68359375 C12.92199219 1.82023437 11.87914062 1.956875 10.8046875 2.09765625 C10.4746875 2.75765625 10.1446875 3.41765625 9.8046875 4.09765625 C8.77794922 3.83662109 8.77794922 3.83662109 7.73046875 3.5703125 C4.34993028 3.0241908 1.39918107 3.22542956 -2.0078125 3.53515625 C-3.74998047 3.68791016 -3.74998047 3.68791016 -5.52734375 3.84375 C-6.40777344 3.92753906 -7.28820312 4.01132812 -8.1953125 4.09765625 C-8.5253125 3.10765625 -8.8553125 2.11765625 -9.1953125 1.09765625 C-6.23720774 -0.38139613 -3.240597 -0.02425278 0 0 Z " transform="translate(515.1953125,402.90234375)" style="fill: #747778;"/><path d="M0 0 C21.72340426 -0.38297872 21.72340426 -0.38297872 31 2 C30.67 2.99 30.34 3.98 30 5 C23.44074057 4.61020794 18.05473373 3.57886807 12 1 C11.67 1.66 11.34 2.32 11 3 C10.34 2.67 9.68 2.34 9 2 C7.46331135 1.77532169 5.92031946 1.59203195 4.375 1.4375 C3.55773437 1.35371094 2.74046875 1.26992188 1.8984375 1.18359375 C1.27195312 1.12300781 0.64546875 1.06242187 0 1 C0 0.67 0 0.34 0 0 Z " transform="translate(526,404)" style="fill: #575C5C;"/><path d="M0 0 C15.03852979 -0.12067956 29.98859814 0.0607391 45 1 C45 1.33 45 1.66 45 2 C33.12 2.33 21.24 2.66 9 3 C9 2.67 9 2.34 9 2 C6.03 1.67 3.06 1.34 0 1 C0 0.67 0 0.34 0 0 Z " transform="translate(361,621)" style="fill: #E3E4E3;"/><path d="M0 0 C8.91 0 17.82 0 27 0 C27 0.33 27 0.66 27 1 C25.41773035 1.19627391 23.83410729 1.38165538 22.25 1.5625 C21.36828125 1.66691406 20.4865625 1.77132813 19.578125 1.87890625 C17.11567549 1.99456676 15.33461936 1.73638695 13 1 C13.33 1.99 13.66 2.98 14 4 C10.0186217 5.3271261 6.14954773 5.06915913 2 5 C1.34 3.35 0.68 1.7 0 0 Z " transform="translate(678,462)" style="fill: #5A5959;"/><path d="M0 0 C1.22589844 0.01353516 1.22589844 0.01353516 2.4765625 0.02734375 C3.41628906 0.04474609 3.41628906 0.04474609 4.375 0.0625 C4.705 1.3825 5.035 2.7025 5.375 4.0625 C2.06251813 4.09138146 -1.24993167 4.10925799 -4.5625 4.125 C-5.50802734 4.13337891 -6.45355469 4.14175781 -7.42773438 4.15039062 C-8.77641602 4.15522461 -8.77641602 4.15522461 -10.15234375 4.16015625 C-11.40132446 4.16801147 -11.40132446 4.16801147 -12.67553711 4.17602539 C-14.625 4.0625 -14.625 4.0625 -15.625 3.0625 C-17.13969448 2.83057135 -18.66254562 2.65034762 -20.1875 2.5 C-21.01378906 2.41621094 -21.84007812 2.33242188 -22.69140625 2.24609375 C-23.32949219 2.18550781 -23.96757813 2.12492187 -24.625 2.0625 C-24.625 1.7325 -24.625 1.4025 -24.625 1.0625 C-22.71074219 1.07990234 -22.71074219 1.07990234 -20.7578125 1.09765625 C-19.08854313 1.10703417 -17.41927217 1.11613437 -15.75 1.125 C-14.90824219 1.13337891 -14.06648437 1.14175781 -13.19921875 1.15039062 C-12.39355469 1.15361328 -11.58789062 1.15683594 -10.7578125 1.16015625 C-10.01418457 1.16539307 -9.27055664 1.17062988 -8.50439453 1.17602539 C-5.48301373 0.99351798 -3.20312837 -0.04575898 0 0 Z " transform="translate(624.625,451.9375)" style="fill: #4B5155;"/><path d="M0 0 C-2.87027759 1.91351839 -5.11520562 2.81598622 -8.3671875 3.875 C-9.41777344 4.22046875 -10.46835937 4.5659375 -11.55078125 4.921875 C-12.64777344 5.27765625 -13.74476563 5.6334375 -14.875 6 C-17.03950316 6.70698565 -19.20358145 7.41527366 -21.3671875 8.125 C-22.32737793 8.43695312 -23.28756836 8.74890625 -24.27685547 9.0703125 C-26.09495865 9.6910169 -27.8928391 10.37434779 -29.66455078 11.1171875 C-32 12 -32 12 -35 12 C-35 11.34 -35 10.68 -35 10 C-32.35452475 9.06147893 -29.70870914 8.12394827 -27.0625 7.1875 C-25.89521362 6.77419434 -25.89521362 6.77419434 -24.7043457 6.35253906 C-20.71152295 4.94276774 -16.71491712 3.55857156 -12.6875 2.25 C-9.20363415 1.18124279 -9.20363415 1.18124279 -6.94140625 -0.1015625 C-4.32706294 -1.31141956 -2.71376656 -0.75382404 0 0 Z " transform="translate(291,575)" style="fill: #A9A9A8;"/><path d="M0 0 C0.33 0.66 0.66 1.32 1 2 C-2.9326066 4.00973168 -6.87184742 6.00609715 -10.8125 8 C-11.93205078 8.57234375 -13.05160156 9.1446875 -14.20507812 9.734375 C-15.81479492 10.54648437 -15.81479492 10.54648437 -17.45703125 11.375 C-18.44678955 11.87773438 -19.43654785 12.38046875 -20.45629883 12.8984375 C-23 14 -23 14 -26 14 C-26 13.34 -26 12.68 -26 12 C-8.85106383 3.23404255 -8.85106383 3.23404255 0 0 Z " transform="translate(720,547)" style="fill: #202020;"/><path d="M0 0 C0.80163574 0.00193359 1.60327148 0.00386719 2.42919922 0.00585938 C8.13461177 0.04739524 13.71192023 0.39428003 19.375 1.125 C19.375 1.455 19.375 1.785 19.375 2.125 C-5.4533211 3.66987331 -5.4533211 3.66987331 -10.625 3.125 C-11.285 2.465 -11.945 1.805 -12.625 1.125 C-8.42201088 -0.05493032 -4.3358214 -0.02492363 0 0 Z " transform="translate(364.625,616.875)" style="fill: #2F2F30;"/><path d="M0 0 C0.66 0.33 1.32 0.66 2 1 C1.38125 1.37125 0.7625 1.7425 0.125 2.125 C-2.5510596 4.48622906 -3.0936844 6.60131652 -4 10 C-4.66 10 -5.32 10 -6 10 C-6 9.01 -6 8.02 -6 7 C-8.64 7.99 -11.28 8.98 -14 10 C-14 8.02 -14 6.04 -14 4 C-13.175 3.896875 -12.35 3.79375 -11.5 3.6875 C-8.65393398 3.12845132 -6.41128552 2.43854293 -3.75 1.375 C-2.5125 0.92125 -1.275 0.4675 0 0 Z " transform="translate(330,529)" style="fill: #C2BFBA;"/><path d="M0 0 C0.66 0.33 1.32 0.66 2 1 C1.34 2.32 0.68 3.64 0 5 C4.61805085 8.23263559 9.63214705 9.53035482 15 11 C14.67 11.66 14.34 12.32 14 13 C8.06308951 12.57593497 2.87470749 11.6318984 -2 8 C-3.1875 5.4375 -3.1875 5.4375 -3 3 C-1.5625 1.1875 -1.5625 1.1875 0 0 Z " transform="translate(248,592)" style="fill: #2F2F2F;"/><path d="M0 0 C0.74886475 0.00523682 1.49772949 0.01047363 2.26928711 0.01586914 C3.07817383 0.0190918 3.88706055 0.02231445 4.72045898 0.02563477 C5.5705957 0.03401367 6.42073242 0.04239258 7.29663086 0.05102539 C8.15063477 0.05553711 9.00463867 0.06004883 9.88452148 0.06469727 C12.00108749 0.07652166 14.11761771 0.0944577 16.23413086 0.11352539 C16.23413086 0.77352539 16.23413086 1.43352539 16.23413086 2.11352539 C15.23784668 2.2341333 15.23784668 2.2341333 14.22143555 2.35717773 C-2.82469476 4.37688312 -2.82469476 4.37688312 -19.76586914 7.11352539 C-19.43586914 6.45352539 -19.10586914 5.79352539 -18.76586914 5.11352539 C-16.09674572 4.33795773 -13.47244564 3.66256286 -10.76586914 3.05102539 C-7.1987686 2.22666968 -3.32572499 0.21380646 0 0 Z " transform="translate(500.765869140625,400.886474609375)" style="fill: #E2E2E2;"/><path d="M0 0 C3.63 0 7.26 0 11 0 C11 0.33 11 0.66 11 1 C14.96 1.33 18.92 1.66 23 2 C23 2.33 23 2.66 23 3 C15.04043449 5.0946225 7.19033227 5.58994384 -1 6 C-1 5.34 -1 4.68 -1 4 C1.97 3.34 4.94 2.68 8 2 C5.36 1.67 2.72 1.34 0 1 C0 0.67 0 0.34 0 0 Z " transform="translate(463,620)" style="fill: #BABAB9;"/><path d="M0 0 C0 3.75832067 -0.93607224 4.3698162 -3.4375 7.0625 C-6.02679823 9.8184536 -6.02679823 9.8184536 -8 13 C-9.32 12.67 -10.64 12.34 -12 12 C-12 9 -12 9 -9.9375 6.5625 C-6.75020965 3.78209778 -3.72591408 1.97254275 0 0 Z " transform="translate(428,440)" style="fill: #909695;"/><path d="M0 0 C-1.18335938 0.45890625 -2.36671875 0.9178125 -3.5859375 1.390625 C-4.34777344 1.68646484 -5.10960937 1.98230469 -5.89453125 2.28710938 C-7.55044045 2.92991507 -9.20669184 3.57183994 -10.86328125 4.21289062 C-16.02833098 6.21608132 -21.16113223 8.27770971 -26.25 10.46875 C-28 11 -28 11 -30 10 C-27.0724592 7.59791524 -24.38370917 6.2367824 -20.8125 5 C-19.84957031 4.66355469 -18.88664062 4.32710937 -17.89453125 3.98046875 C-16.93933594 3.65691406 -15.98414063 3.33335937 -15 3 C-13.70642578 2.56107422 -13.70642578 2.56107422 -12.38671875 2.11328125 C-10.26060621 1.39993743 -8.13145925 0.6971648 -6 0 C-3 -1 -3 -1 0 0 Z " transform="translate(288,560)" style="fill: #DEDDD9;"/><path d="M0 0 C1.32 0.33 2.64 0.66 4 1 C4 1.99 4 2.98 4 4 C3.28714844 4.12117187 2.57429688 4.24234375 1.83984375 4.3671875 C-4.63829691 5.490363 -4.63829691 5.490363 -11 7.125 C-14 8 -14 8 -17 8 C-17 7.34 -17 6.68 -17 6 C-14.73050898 5.32844651 -12.4596039 4.6626037 -10.1875 4 C-8.29064453 3.443125 -8.29064453 3.443125 -6.35546875 2.875 C-3 2 -3 2 0 2 C0 1.34 0 0.68 0 0 Z " transform="translate(402,524)" style="fill: #C3C2BE;"/><path d="M0 0 C0.66 0.33 1.32 0.66 2 1 C1.56131592 1.40839111 1.12263184 1.81678223 0.6706543 2.23754883 C-1.32425849 4.09529982 -3.31838655 5.95389105 -5.3125 7.8125 C-6.00279297 8.45509766 -6.69308594 9.09769531 -7.40429688 9.75976562 C-8.40493164 10.69272461 -8.40493164 10.69272461 -9.42578125 11.64453125 C-10.03848877 12.21534424 -10.65119629 12.78615723 -11.2824707 13.37426758 C-12.88355739 14.88978091 -14.44952293 16.43291809 -16 18 C-16.66 17.67 -17.32 17.34 -18 17 C-16.71937515 15.2925002 -15.38232443 13.62626404 -14 12 C-13.34 12 -12.68 12 -12 12 C-11.34 10.68 -10.68 9.36 -10 8 C-9.34 8 -8.68 8 -8 8 C-7.34 6.68 -6.68 5.36 -6 4 C-5.34 4 -4.68 4 -4 4 C-4 3.34 -4 2.68 -4 2 C-2.125 0.9375 -2.125 0.9375 0 0 Z " transform="translate(424,436)" style="fill: #E6E7E5;"/><path d="M0 0 C4.34156921 0.50095029 6.89846077 3.10523005 10 6 C10.33 6.99 10.66 7.98 11 9 C11.66 9.33 12.32 9.66 13 10 C14.04808041 11.97522846 15.0520411 13.97481509 16 16 C15.34 16.33 14.68 16.66 14 17 C13.40832031 16.27554687 12.81664062 15.55109375 12.20703125 14.8046875 C8.15900123 9.85195909 4.10802001 4.90312066 0 0 Z " transform="translate(628,443)" style="fill: #E6E7E7;"/><path d="M0 0 C0.66 0 1.32 0 2 0 C1.48373031 3.78597774 0.69330279 6.61339441 -1 10 C-1.38290462 11.99110401 -1.72604615 13.99100513 -2 16 C-4.64 16.66 -7.28 17.32 -10 18 C-8.71034824 16.62437146 -7.37310707 15.29233607 -6 14 C-5.34 14 -4.68 14 -4 14 C-3.896875 13.360625 -3.79375 12.72125 -3.6875 12.0625 C-2.76096927 7.93522674 -1.38339371 3.99357051 0 0 Z " transform="translate(380,496)" style="fill: #ECEBE9;"/><path d="M0 0 C6.67405178 2.08564118 12.31598962 6.92565542 17 12 C16.01 12.495 16.01 12.495 15 13 C12.49234716 11.21885509 9.99529316 9.42340948 7.5 7.625 C6.78457031 7.11710937 6.06914063 6.60921875 5.33203125 6.0859375 C4.31689453 5.35117187 4.31689453 5.35117187 3.28125 4.6015625 C2.65283203 4.15119629 2.02441406 3.70083008 1.37695312 3.23681641 C0.92255859 2.82866699 0.46816406 2.42051758 0 2 C0 1.34 0 0.68 0 0 Z " transform="translate(605,424)" style="fill: #DDDEDE;"/><path d="M0 0 C6.00548392 0.48693113 11.92365135 2.79160928 17 6 C17.82421875 8.16796875 17.82421875 8.16796875 18 10 C17.01 10 16.02 10 15 10 C14.38125 9.3503125 14.38125 9.3503125 13.75 8.6875 C11.21434822 6.24240721 8.23553279 5.33884115 5 4 C2.0625 2.375 2.0625 2.375 0 1 C0 0.67 0 0.34 0 0 Z " transform="translate(577,413)" style="fill: #414447;"/><path d="M0 0 C0.33 0.66 0.66 1.32 1 2 C0.38511719 2.26554688 -0.22976563 2.53109375 -0.86328125 2.8046875 C-1.67152344 3.15789063 -2.47976563 3.51109375 -3.3125 3.875 C-4.51326172 4.39707031 -4.51326172 4.39707031 -5.73828125 4.9296875 C-8.1961834 6.02571894 -8.1961834 6.02571894 -11 8 C-11.99 8 -12.98 8 -14 8 C-12.56684975 4.38226397 -10.95412036 3.030893 -7.5625 1.1875 C-6.78003906 0.74792969 -5.99757813 0.30835938 -5.19140625 -0.14453125 C-3 -1 -3 -1 0 0 Z " transform="translate(352,607)" style="fill: #575757;"/><path d="M0 0 C5.91492272 0.45224761 11.35199888 1.1582605 17 3 C17 3.33 17 3.66 17 4 C9.08 3.67 1.16 3.34 -7 3 C-7 2.67 -7 2.34 -7 2 C-3.535 1.505 -3.535 1.505 0 1 C0 0.67 0 0.34 0 0 Z " transform="translate(763,470)" style="fill: #5F5F5F;"/><path d="M0 0 C0.66 0 1.32 0 2 0 C2.10152799 6.7685324 2.03026944 13.30324864 1 20 C-1 18 -1 18 -1.13525391 16.12060547 C-1.05670166 15.00516357 -1.05670166 15.00516357 -0.9765625 13.8671875 C-0.925 13.06152344 -0.8734375 12.25585938 -0.8203125 11.42578125 C-0.75585938 10.58402344 -0.69140625 9.74226562 -0.625 8.875 C-0.56828125 8.02550781 -0.5115625 7.17601562 -0.453125 6.30078125 C-0.31149023 4.1998655 -0.15695674 2.09982666 0 0 Z " transform="translate(904,534)" style="fill: #C4C4C3;"/><path d="M0 0 C0.99 0.33 1.98 0.66 3 1 C3 1.99 3 2.98 3 4 C3.75925781 3.98839844 4.51851562 3.97679687 5.30078125 3.96484375 C6.29464844 3.95582031 7.28851562 3.94679688 8.3125 3.9375 C9.29863281 3.92589844 10.28476562 3.91429687 11.30078125 3.90234375 C14 4 14 4 17 5 C17 5.66 17 6.32 17 7 C15.35 7 13.7 7 12 7 C12 6.34 12 5.68 12 5 C10.948125 5.185625 9.89625 5.37125 8.8125 5.5625 C5.42880118 5.95079331 3.23574112 5.88247485 0 5 C0 3.35 0 1.7 0 0 Z " transform="translate(722,460)" style="fill: #555455;"/><path d="M0 0 C5.94 0 11.88 0 18 0 C18.33 0.66 18.66 1.32 19 2 C12.41816638 2.8931507 6.57849492 2.95494281 0 2 C0 1.34 0 0.68 0 0 Z " transform="translate(591,454)" style="fill: #51555A;"/><path d="M0 0 C-2.52419593 2.52419593 -4.42357863 2.78957038 -7.875 3.625 C-8.92429687 3.88539063 -9.97359375 4.14578125 -11.0546875 4.4140625 C-14 5 -14 5 -18 5 C-18 4.34 -18 3.68 -18 3 C-11.79485526 0.86380263 -6.57315478 -0.36517527 0 0 Z " transform="translate(594,597)" style="fill: #1B1B1B;"/><path d="M0 0 C4.95 0 9.9 0 15 0 C14.67 0.66 14.34 1.32 14 2 C11.5825075 2.48290232 9.25441215 2.84261774 6.8125 3.125 C6.15185547 3.21136719 5.49121094 3.29773438 4.81054688 3.38671875 C0.85174682 3.87912626 -3.01310809 4.08680636 -7 4 C-4 2 -4 2 0 2 C0 1.34 0 0.68 0 0 Z " transform="translate(538,623)" style="fill: #BDBEBE;"/><path d="M0 0 C1.65 0.33 3.3 0.66 5 1 C4.67 1.99 4.34 2.98 4 4 C0.7 4.33 -2.6 4.66 -6 5 C-6 4.34 -6 3.68 -6 3 C-7.65 3 -9.3 3 -11 3 C-11 2.67 -11 2.34 -11 2 C-3.57142857 0.71428571 -3.57142857 0.71428571 0 2 C0 1.34 0 0.68 0 0 Z " transform="translate(576,455)" style="fill: #606568;"/><path d="M0 0 C0.33 0.99 0.66 1.98 1 3 C-0.2888586 4.70129335 -1.63704705 6.35746695 -3 8 C-5.07399475 11.29013279 -7.0424395 14.63952115 -9 18 C-9.66 17.34 -10.32 16.68 -11 16 C-9.92044741 14.26847042 -8.83617488 12.53988316 -7.75 10.8125 C-7.14671875 9.84957031 -6.5434375 8.88664062 -5.921875 7.89453125 C-4.08362455 5.12594673 -2.11574051 2.56042049 0 0 Z " transform="translate(402,461)" style="fill: #686B6B;"/><path d="M0 0 C1.32 0.33 2.64 0.66 4 1 C4 2.32 4 3.64 4 5 C8.62 5 13.24 5 18 5 C18 5.33 18 5.66 18 6 C10.08 6.495 10.08 6.495 2 7 C1.67 5.35 1.34 3.7 1 2 C0.67 1.34 0.34 0.68 0 0 Z " transform="translate(641,455)" style="fill: #D9D9D7;"/><path d="M0 0 C1.32 0.66 2.64 1.32 4 2 C4.33 1.34 4.66 0.68 5 0 C5.33 0.99 5.66 1.98 6 3 C1.66579301 5.03165952 -2.28596212 5.52060632 -7 6 C-4.74259377 3.66475218 -2.7194239 1.81294927 0 0 Z " transform="translate(447,422)" style="fill: #888988;"/><path d="M0 0 C0.66 0.33 1.32 0.66 2 1 C1.15695312 1.51949219 0.31390625 2.03898438 -0.5546875 2.57421875 C-1.65039062 3.27160156 -2.74609375 3.96898437 -3.875 4.6875 C-4.96554688 5.37199219 -6.05609375 6.05648437 -7.1796875 6.76171875 C-10.11164147 9.08860188 -11.01774729 10.45021332 -12 14 C-12.33 14 -12.66 14 -13 14 C-13.3125 11.8125 -13.3125 11.8125 -13 9 C-9.62315506 4.67341742 -5.18907537 1.76405653 0 0 Z " transform="translate(255,571)" style="fill: #EBEAE8;"/><path d="M0 0 C0.33 0 0.66 0 1 0 C0.48517081 5.852795 -0.45357192 11.3297637 -2 17 C-2.66 17 -3.32 17 -4 17 C-3.45018084 10.95198929 -2.09570426 5.69398894 0 0 Z " transform="translate(896,597)" style="fill: #C0C0BF;"/><path d="M0 0 C1.07765625 0.01804687 2.1553125 0.03609375 3.265625 0.0546875 C4.49539063 0.08949219 4.49539063 0.08949219 5.75 0.125 C5.42 1.115 5.09 2.105 4.75 3.125 C1.38652975 4.59844683 -1.49168233 3.89751667 -5 3.1875 C-5.98484375 2.99285156 -6.9696875 2.79820312 -7.984375 2.59765625 C-8.73203125 2.44167969 -9.4796875 2.28570313 -10.25 2.125 C-6.7733662 -0.01836161 -4.03770805 -0.08777626 0 0 Z " transform="translate(498.25,615.875)" style="fill: #202021;"/><path d="M0 0 C6.49850211 0.51553879 12.66226532 1.46667709 19 3 C19 3.33 19 3.66 19 4 C8.47277879 4.18397086 8.47277879 4.18397086 4 3 C2.8553125 2.7215625 2.8553125 2.7215625 1.6875 2.4375 C0.8521875 2.2209375 0.8521875 2.2209375 0 2 C0 1.34 0 0.68 0 0 Z " transform="translate(271,609)" style="fill: #EEEDED;"/><path d="M0 0 C0.66 0.33 1.32 0.66 2 1 C0.54794521 5.59817352 0.54794521 5.59817352 -1.875 7.375 C-4 8 -4 8 -8 7 C-5.36 4.69 -2.72 2.38 0 0 Z " transform="translate(270,559)" style="fill: #BEBCB8;"/><path d="M0 0 C3.87302138 1.14430177 7.00263439 2.23320098 10 5 C10 5.66 10 6.32 10 7 C10.66 7.33 11.32 7.66 12 8 C12 8.66 12 9.32 12 10 C6.44444444 8.64197531 6.44444444 8.64197531 4.3125 5.5625 C3.879375 4.716875 3.44625 3.87125 3 3 C1.41754725 1.24850835 1.41754725 1.24850835 0 0 Z " transform="translate(593,420)" style="fill: #373B3D;"/><path d="M0 0 C1.58294782 -0.05437607 3.16644256 -0.09296271 4.75 -0.125 C5.63171875 -0.14820313 6.5134375 -0.17140625 7.421875 -0.1953125 C10.1135858 0.00860498 11.69904974 0.63448279 14 2 C13.67 2.66 13.34 3.32 13 4 C7.25 4.125 7.25 4.125 5 3 C5 2.34 5 1.68 5 1 C3.35 1 1.7 1 0 1 C0 0.67 0 0.34 0 0 Z " transform="translate(543,405)" style="fill: #515656;"/><path d="M0 0 C4.62 0 9.24 0 14 0 C14 0.66 14 1.32 14 2 C7.565 2.495 7.565 2.495 1 3 C0.67 2.01 0.34 1.02 0 0 Z " transform="translate(506,404)" style="fill: #646868;"/><path d="M0 0 C-0.33 0.66 -0.66 1.32 -1 2 C-5.68395246 3.14242743 -10.21355271 3.08252495 -15 3 C-10.77398726 -1.22601274 -5.55329835 -1.35446301 0 0 Z " transform="translate(555,621)" style="fill: #C6C7C7;"/><path d="M0 0 C-0.33 1.65 -0.66 3.3 -1 5 C-2.32 5.33 -3.64 5.66 -5 6 C-5 5.34 -5 4.68 -5 4 C-6.65 4.33 -8.3 4.66 -10 5 C-7.31217681 1.88778367 -4.19734673 0 0 0 Z " transform="translate(315,536)" style="fill: #C2BEBB;"/><path d="M0 0 C0.78890625 0.04640625 1.5778125 0.0928125 2.390625 0.140625 C3.18984375 0.17671875 3.9890625 0.2128125 4.8125 0.25 C5.41578125 0.29640625 6.0190625 0.3428125 6.640625 0.390625 C6.970625 1.710625 7.300625 3.030625 7.640625 4.390625 C3.020625 4.390625 -1.599375 4.390625 -6.359375 4.390625 C-2.359375 0.390625 -2.359375 0.390625 0 0 Z " transform="translate(622.359375,451.609375)" style="fill: #404449;"/><path d="M0 0 C-0.33 0.66 -0.66 1.32 -1 2 C1.97 2.495 1.97 2.495 5 3 C5 3.33 5 3.66 5 4 C-1.435 4.495 -1.435 4.495 -8 5 C-8 4.01 -8 3.02 -8 2 C-3.71900826 -1.23966942 -3.71900826 -1.23966942 0 0 Z " transform="translate(466,417)" style="fill: #909392;"/><path d="M0 0 C-2.5 1.5 -2.5 1.5 -5 3 C-6.2684375 3.8353125 -6.2684375 3.8353125 -7.5625 4.6875 C-10 6 -10 6 -14 6 C-14 5.34 -14 4.68 -14 4 C-12.23494565 3.13395466 -10.46271926 2.28251358 -8.6875 1.4375 C-7.70136719 0.96183594 -6.71523438 0.48617187 -5.69921875 -0.00390625 C-3 -1 -3 -1 0 0 Z " transform="translate(704,559)" style="fill: #DCDCDB;"/><path d="M0 0 C5.01113235 1.4317521 6.94469549 3.98445693 10 8 C5.17965738 7.58682778 3.09007389 5.61980085 0 2 C0 1.34 0 0.68 0 0 Z " transform="translate(615,434)" style="fill: #282C2F;"/><path d="M0 0 C0.53625 0.2475 1.0725 0.495 1.625 0.75 C-0.58427127 4.23832306 -2.46097051 5.48058503 -6.375 6.75 C-6.375 6.09 -6.375 5.43 -6.375 4.75 C-7.035 4.42 -7.695 4.09 -8.375 3.75 C-2.95961538 -0.31153846 -2.95961538 -0.31153846 0 0 Z " transform="translate(447.375,426.25)" style="fill: #949998;"/><path d="M0 0 C0.66 0.33 1.32 0.66 2 1 C1.34 2.32 0.68 3.64 0 5 C2.475 6.98 2.475 6.98 5 9 C2.69 8.67 0.38 8.34 -2 8 C-2.6875 5.6875 -2.6875 5.6875 -3 3 C-1.5625 1.1875 -1.5625 1.1875 0 0 Z " transform="translate(248,592)" style="fill: #282827;"/><path d="M0 0 C0.33 0.66 0.66 1.32 1 2 C-0.93108963 3.03290841 -2.870118 4.05098672 -4.8125 5.0625 C-5.89144531 5.63097656 -6.97039063 6.19945312 -8.08203125 6.78515625 C-11 8 -11 8 -14 7 C-9.4943313 3.73339019 -5.264829 1.81545828 0 0 Z " transform="translate(720,547)" style="fill: #161616;"/><path d="M0 0 C9.41002278 -0.18451025 9.41002278 -0.18451025 14 1 C13.67 1.66 13.34 2.32 13 3 C8.17639811 3.19294408 4.50353262 2.75747614 0 1 C0 0.67 0 0.34 0 0 Z " transform="translate(305,615)" style="fill: #E6E6E5;"/><path d="M0 0 C0.66 0.66 1.32 1.32 2 2 C1.6700572 5.39770885 0.1807479 7.2681087 -2.0625 9.75 C-2.61035156 10.36359375 -3.15820312 10.9771875 -3.72265625 11.609375 C-4.14417969 12.06828125 -4.56570313 12.5271875 -5 13 C-5.66 12.67 -6.32 12.34 -7 12 C-6.57847656 11.46890625 -6.15695312 10.9378125 -5.72265625 10.390625 C-5.17480469 9.68421875 -4.62695312 8.9778125 -4.0625 8.25 C-3.51722656 7.55390625 -2.97195313 6.8578125 -2.41015625 6.140625 C-1.02574346 4.03907872 -0.43713013 2.45678201 0 0 Z " transform="translate(802,491)" style="fill: #D7D7D6;"/><path d="M0 0 C3.96 0.99 3.96 0.99 8 2 C8 2.66 8 3.32 8 4 C4.7 4 1.4 4 -2 4 C-1.34 2.68 -0.68 1.36 0 0 Z " transform="translate(341,614)" style="fill: #272727;"/><path d="M0 0 C3.3 0 6.6 0 10 0 C10 0.33 10 0.66 10 1 C6.7 1 3.4 1 0 1 C0 0.67 0 0.34 0 0 Z M-8 1 C-5.36 1 -2.72 1 0 1 C-1.32 1.99 -2.64 2.98 -4 4 C-5.32 3.34 -6.64 2.68 -8 2 C-8 1.67 -8 1.34 -8 1 Z " transform="translate(520,624)" style="fill: #B6B6B7;"/><path d="M0 0 C0 0.66 0 1.32 0 2 C-2.40545638 3.20272819 -3.94996953 3.10071472 -6.625 3.0625 C-7.85089844 3.04896484 -7.85089844 3.04896484 -9.1015625 3.03515625 C-10.04128906 3.01775391 -10.04128906 3.01775391 -11 3 C-10 1 -10 1 -8.3125 0.375 C-5.51555886 -0.07855802 -2.82858003 -0.06428591 0 0 Z " transform="translate(544,620)" style="fill: #141416;"/><path d="M0 0 C0.33 0.66 0.66 1.32 1 2 C3.32156597 2.40729228 5.6568787 2.74438677 8 3 C8 3.33 8 3.66 8 4 C2.22192976 4.2358396 -2.51324804 3.86783046 -8 2 C-8 1.67 -8 1.34 -8 1 C-5.36 0.67 -2.72 0.34 0 0 Z " transform="translate(485,615)" style="fill: #30302F;"/><path d="M0 0 C0.66 0.33 1.32 0.66 2 1 C1.2575 1.556875 0.515 2.11375 -0.25 2.6875 C-2.91707995 4.93027178 -4.91556232 7.22074975 -7 10 C-7.4375 7.8125 -7.4375 7.8125 -7 5 C-4.86004673 3.01558218 -2.49824035 1.4976696 0 0 Z " transform="translate(251,575)" style="fill: #787776;"/><path d="M0 0 C0.33 0.66 0.66 1.32 1 2 C-1.25 4.0625 -1.25 4.0625 -4 6 C-6.3125 5.75 -6.3125 5.75 -8 5 C-5.47211993 2.20127563 -3.79588866 0.54226981 0 0 Z " transform="translate(775,519)" style="fill: #D4D4D5;"/><path d="M0 0 C2.97 0 5.94 0 9 0 C8.67 0.66 8.34 1.32 8 2 C0.35711773 4.38056989 0.35711773 4.38056989 -4 3 C-3.01 2.67 -2.02 2.34 -1 2 C-0.67 1.34 -0.34 0.68 0 0 Z " transform="translate(437,481)" style="fill: #8C9090;"/><path d="M0 0 C0 3.60573896 -0.81707462 4.41336566 -3 7.1875 C-3.556875 7.90292969 -4.11375 8.61835938 -4.6875 9.35546875 C-5.120625 9.89816406 -5.55375 10.44085938 -6 11 C-6.33 10.01 -6.66 9.02 -7 8 C-5.56640625 5.95703125 -5.56640625 5.95703125 -3.5625 3.8125 C-2.90378906 3.09707031 -2.24507813 2.38164062 -1.56640625 1.64453125 C-1.04949219 1.10183594 -0.53257812 0.55914062 0 0 Z " transform="translate(405,461)" style="fill: #878B8B;"/><path d="M0 0 C0.80824219 0.10183594 1.61648438 0.20367188 2.44921875 0.30859375 C3.06410156 0.39238281 3.67898438 0.47617187 4.3125 0.5625 C4.3125 0.8925 4.3125 1.2225 4.3125 1.5625 C0.6825 1.8925 -2.9475 2.2225 -6.6875 2.5625 C-7.0175 1.9025 -7.3475 1.2425 -7.6875 0.5625 C-4.59271121 -0.46909626 -3.16118607 -0.41232862 0 0 Z " transform="translate(299.6875,610.4375)" style="fill: #313131;"/><path d="M0 0 C-2.1755306 2.1755306 -3.55973892 2.71879553 -6.4375 3.6875 C-7.21996094 3.95949219 -8.00242187 4.23148438 -8.80859375 4.51171875 C-11 5 -11 5 -14 4 C-12.23494565 3.13395466 -10.46271926 2.28251358 -8.6875 1.4375 C-7.70136719 0.96183594 -6.71523438 0.48617187 -5.69921875 -0.00390625 C-3 -1 -3 -1 0 0 Z " transform="translate(675,572)" style="fill: #DADBDB;"/><path d="M0 0 C-5.09090909 4 -5.09090909 4 -8 5 C-10.125 4.04296875 -10.125 4.04296875 -12 3 C-10.3789897 2.30314502 -8.75303934 1.61777139 -7.125 0.9375 C-6.22007812 0.55464844 -5.31515625 0.17179688 -4.3828125 -0.22265625 C-2 -1 -2 -1 0 0 Z " transform="translate(676,568)" style="fill: #282829;"/><path d="M0 0 C0 0.66 0 1.32 0 2 C-4.455 2.495 -4.455 2.495 -9 3 C-7.25980102 -2.22059695 -4.77429694 -0.93410157 0 0 Z " transform="translate(514,488)" style="fill: #454443;"/><path d="M0 0 C2.64 0 5.28 0 8 0 C7.01 1.485 7.01 1.485 6 3 C2.375 3.1875 2.375 3.1875 -1 3 C-0.67 2.01 -0.34 1.02 0 0 Z " transform="translate(415,624)" style="fill: #C6C6C3;"/><path d="M0 0 C4.29 0.33 8.58 0.66 13 1 C9.6987992 3.20080053 9.10898842 3.21218749 5.375 2.75 C4.57835937 2.66234375 3.78171875 2.5746875 2.9609375 2.484375 C2.31382812 2.32453125 1.66671875 2.1646875 1 2 C0.67 1.34 0.34 0.68 0 0 Z " transform="translate(504,620)" style="fill: #2A2A2A;"/><path d="M0 0 C2.97 0 5.94 0 9 0 C9.33 0.99 9.66 1.98 10 3 C6.7 2.67 3.4 2.34 0 2 C0 1.34 0 0.68 0 0 Z " transform="translate(264,605)" style="fill: #2B2B2B;"/><path d="M0 0 C1.32 0.33 2.64 0.66 4 1 C1.36 2.98 -1.28 4.96 -4 7 C-4.66 6.67 -5.32 6.34 -6 6 C-5.09972412 4.96468274 -4.17906965 3.94705835 -3.25 2.9375 C-2.48429687 2.08478516 -2.48429687 2.08478516 -1.703125 1.21484375 C-1.14109375 0.81394531 -0.5790625 0.41304688 0 0 Z " transform="translate(433,428)" style="fill: #E0DFDF;"/><path d="M0 0 C1 3 1 3 0.00390625 5.48046875 C-0.47175781 6.37378906 -0.94742187 7.26710938 -1.4375 8.1875 C-1.91058594 9.08855469 -2.38367188 9.98960937 -2.87109375 10.91796875 C-3.24363281 11.60503906 -3.61617188 12.29210937 -4 13 C-5.0169313 10.34501768 -5.13022151 9.30844625 -4.00390625 6.640625 C-3.52824219 5.85171875 -3.05257813 5.0628125 -2.5625 4.25 C-2.08941406 3.45078125 -1.61632812 2.6515625 -1.12890625 1.828125 C-0.75636719 1.22484375 -0.38382812 0.6215625 0 0 Z " transform="translate(391,478)" style="fill: #565959;"/><path d="M0 0 C0.66 0.33 1.32 0.66 2 1 C-1.17320782 4.53586014 -3.16743695 6.58578031 -8 7 C-5.42215154 4.35247996 -3.08351902 2.05567935 0 0 Z " transform="translate(436,429)" style="fill: #7D7F7F;"/><path d="M0 0 C0.33 0.66 0.66 1.32 1 2 C-1.64 2.99 -4.28 3.98 -7 5 C-7 3.68 -7 2.36 -7 1 C-3.375 -1.125 -3.375 -1.125 0 0 Z " transform="translate(352,607)" style="fill: #4D4D4D;"/><path d="M0 0 C-3.31371 2.20914 -4.3446021 2.22481553 -8.1875 2.125 C-9.08855469 2.10695313 -9.98960937 2.08890625 -10.91796875 2.0703125 C-11.60503906 2.04710937 -12.29210937 2.02390625 -13 2 C-12.67 1.34 -12.34 0.68 -12 0 C-3.89667897 -1.46125461 -3.89667897 -1.46125461 0 0 Z " transform="translate(560,497)" style="fill: #7F7F7E;"/><path d="M0 0 C0.33 0 0.66 0 1 0 C1.375 3.1875 1.375 3.1875 1 7 C-0.81188028 9.1403498 -2.65801167 10.38988302 -5 12 C-5.66 11.67 -6.32 11.34 -7 11 C-6.21625 10.29875 -5.4325 9.5975 -4.625 8.875 C-1.91639182 5.90842914 -0.98277285 3.8417484 0 0 Z " transform="translate(475,424)" style="fill: #979998;"/><path d="M0 0 C4.51478398 0.53115106 7.34666857 2.36620292 11 5 C10.34 5.66 9.68 6.32 9 7 C7.4972763 6.02501855 5.99788037 5.04490611 4.5 4.0625 C3.6646875 3.51722656 2.829375 2.97195313 1.96875 2.41015625 C1.3190625 1.94480469 0.669375 1.47945313 0 1 C0 0.67 0 0.34 0 0 Z " transform="translate(601,425)" style="fill: #2E3033;"/><path d="M0 0 C6.4 -0.36923077 6.4 -0.36923077 9.4375 1.5 C9.953125 1.995 10.46875 2.49 11 3 C3.57142857 3.14285714 3.57142857 3.14285714 0 2 C0 1.34 0 0.68 0 0 Z " transform="translate(419,894)" style="fill: #C6C6C5;"/><path d="M0 0 C1.32 0 2.64 0 4 0 C2.63016497 3.16115776 2.0109362 3.9927092 -1 6 C-1.33 5.01 -1.66 4.02 -2 3 C-1.34 2.01 -0.68 1.02 0 0 Z " transform="translate(571,603)" style="fill: #212121;"/><path d="M0 0 C1.32 0.66 2.64 1.32 4 2 C1 4 1 4 -2 4 C-2.33 4.99 -2.66 5.98 -3 7 C-3.33 6.01 -3.66 5.02 -4 4 C-3.01 3.67 -2.02 3.34 -1 3 C-0.67 2.01 -0.34 1.02 0 0 Z " transform="translate(374,515)" style="fill: #C5C1BD;"/><path d="M0 0 C-2.8086289 2.8086289 -5.11134294 2.72711179 -9 3 C-9.99 2.34 -10.98 1.68 -12 1 C-7.93631321 0.22596442 -4.13574827 -0.0984702 0 0 Z " transform="translate(461,513)" style="fill: #E4E3DF;"/><path d="M0 0 C3.375 -0.125 3.375 -0.125 7 0 C7.66 0.66 8.32 1.32 9 2 C5.7 2.33 2.4 2.66 -1 3 C-0.67 2.01 -0.34 1.02 0 0 Z " transform="translate(563,477)" style="fill: #353433;"/><path d="M0 0 C1.27875 -0.061875 2.5575 -0.12375 3.875 -0.1875 C4.95394531 -0.23970703 4.95394531 -0.23970703 6.0546875 -0.29296875 C6.69664062 -0.19628906 7.33859375 -0.09960938 8 0 C8.66 0.99 9.32 1.98 10 3 C2.25 2.25 2.25 2.25 0 0 Z " transform="translate(780,472)" style="fill: #D4D4D4;"/><path d="M0 0 C0.6875 1.6875 0.6875 1.6875 1 4 C-0.1875 6.6875 -0.1875 6.6875 -2 9 C-4.1875 9.8125 -4.1875 9.8125 -6 10 C-6 6.70247891 -3.24300753 5.24300753 -1 3 C-0.67 2.01 -0.34 1.02 0 0 Z " transform="translate(275,550)" style="fill: #E7E4E1;"/><path d="M0 0 C1.32 0.33 2.64 0.66 4 1 C4.33 2.65 4.66 4.3 5 6 C3.68 5.67 2.36 5.34 1 5 C0.67 3.35 0.34 1.7 0 0 Z " transform="translate(637,456)" style="fill: #222324;"/><path d="M0 0 C0.99 0.33 1.98 0.66 3 1 C2.67 2.65 2.34 4.3 2 6 C0.35 6 -1.3 6 -3 6 C-2.34 5.67 -1.68 5.34 -1 5 C-0.34444881 2.47266765 -0.34444881 2.47266765 0 0 Z " transform="translate(633,450)" style="fill: #373C3D;"/><path d="M0 0 C7.75 1.875 7.75 1.875 10 3 C10 3.66 10 4.32 10 5 C6.05140217 4.4359146 3.29120954 3.2568294 0 1 C0 0.67 0 0.34 0 0 Z " transform="translate(587,415)" style="fill: #E2E2E2;"/><path d="M0 0 C0.99 0.33 1.98 0.66 3 1 C2 3 2 3 0.15234375 3.6328125 C-0.57855469 3.79523437 -1.30945313 3.95765625 -2.0625 4.125 C-2.79597656 4.29257812 -3.52945312 4.46015625 -4.28515625 4.6328125 C-4.85105469 4.75398437 -5.41695313 4.87515625 -6 5 C-6 4.01 -6 3.02 -6 2 C-4.02 2 -2.04 2 0 2 C0 1.34 0 0.68 0 0 Z " transform="translate(322,546)" style="fill: #D2CFCD;"/><path d="M0 0 C3.3 0.33 6.6 0.66 10 1 C10 1.33 10 1.66 10 2 C6.7 2.33 3.4 2.66 0 3 C0 2.01 0 1.02 0 0 Z " transform="translate(600,545)" style="fill: #464646;"/><path d="M0 0 C-5.2734375 3.22265625 -5.2734375 3.22265625 -7 4 C-7.66 3.67 -8.32 3.34 -9 3 C-7 0 -7 0 -4.5 -0.75 C-2 -1 -2 -1 0 0 Z " transform="translate(732,543)" style="fill: #181817;"/><path d="M0 0 C1.2065625 0.0309375 1.2065625 0.0309375 2.4375 0.0625 C0.30969421 2.40308637 -1.67812221 3.76950306 -4.5625 5.0625 C-3.43829114 0.08386076 -3.43829114 0.08386076 0 0 Z " transform="translate(444.5625,498.9375)" style="fill: #BAB8B6;"/><path d="M0 0 C0.33 0.99 0.66 1.98 1 3 C-2 5 -2 5 -4.1875 4.625 C-4.785625 4.41875 -5.38375 4.2125 -6 4 C-4.02 2.68 -2.04 1.36 0 0 Z " transform="translate(446,423)" style="fill: #7B7E7E;"/></svg>